<svg width="152" height="152" viewBox="0 0 152 152" fill="none" xmlns="http://www.w3.org/2000/svg">
<g filter="url(#filter0_d_2_18677)">
<rect x="24" y="12" width="104" height="104" rx="52" fill="white" shape-rendering="crispEdges"/>
<g clip-path="url(#clip0_2_18677)">
<path d="M49.2701 42.8079C49.0415 44.91 48.0968 46.8714 46.5926 48.3667C45.0884 49.8621 43.1151 50.8016 41 51.0294V42.8079H49.2701Z" fill="#112521"/>
<path d="M49.2701 80.4371H41V72.218C43.1143 72.447 45.0866 73.3866 46.5904 74.8812C48.0943 76.3758 49.0397 78.3359 49.2701 80.4371Z" fill="#112521"/>
<path d="M111 42.8079V51.0294C108.885 50.8016 106.912 49.8621 105.407 48.3667C103.903 46.8714 102.959 44.91 102.73 42.8079H111Z" fill="#112521"/>
<path d="M111 72.218V80.4371H102.73C102.96 78.3357 103.905 76.3754 105.409 74.8807C106.913 73.386 108.886 72.4466 111 72.218Z" fill="#112521"/>
<path d="M104.002 49.7623C102.12 47.9013 100.962 45.4372 100.735 42.8079H51.2625C51.0301 45.4352 49.8742 47.8974 47.9976 49.7624C46.1211 51.6274 43.6437 52.7761 41 53.0071V70.2379C43.6418 70.4739 46.1163 71.6243 47.9919 73.4883C49.8675 75.3523 51.025 77.8116 51.2625 80.4371H100.735C100.972 77.8114 102.13 75.3519 104.005 73.4878C105.881 71.6237 108.356 70.4735 110.998 70.2379V53.0071C108.353 52.7833 105.874 51.6334 104.002 49.7623ZM51.1049 66.8799C50.0583 66.8804 49.0351 66.5724 48.1646 65.9948C47.2942 65.4173 46.6156 64.5962 46.2148 63.6353C45.8139 62.6745 45.7088 61.6171 45.9127 60.5969C46.1166 59.5766 46.6203 58.6394 47.3602 57.9037C48.1001 57.1681 49.0429 56.667 50.0693 56.4639C51.0958 56.2608 52.1598 56.3648 53.1268 56.7627C54.0938 57.1607 54.9203 57.8347 55.5018 58.6995C56.0833 59.5643 56.3937 60.5811 56.3937 61.6213C56.3931 63.0153 55.8357 64.3522 54.8441 65.3381C53.8525 66.3241 52.5076 66.8786 51.1049 66.8799ZM76.0121 77.7536C71.7982 77.6182 67.8024 75.8593 64.8697 72.8489C61.9371 69.8385 60.2974 65.8126 60.2974 61.6225C60.2974 57.4323 61.9371 53.4064 64.8697 50.396C67.8024 47.3857 71.7982 45.6268 76.0121 45.4914C80.2331 45.6169 84.2389 47.3716 87.1799 50.3833C90.1209 53.395 91.7658 57.4268 91.7658 61.6237C91.7658 65.8205 90.1209 69.8524 87.1799 72.8641C84.2389 75.8757 80.2331 77.6304 76.0121 77.756V77.7536ZM100.905 66.8799C99.8582 66.8804 98.8349 66.5724 97.9645 65.9948C97.094 65.4173 96.4155 64.5962 96.0146 63.6353C95.6138 62.6745 95.5086 61.6171 95.7125 60.5969C95.9164 59.5766 96.4202 58.6394 97.1601 57.9037C97.8999 57.1681 98.8427 56.667 99.8692 56.4639C100.896 56.2608 101.96 56.3648 102.927 56.7627C103.894 57.1607 104.72 57.8347 105.302 58.6995C105.883 59.5643 106.194 60.5811 106.194 61.6213C106.192 63.0168 105.633 64.3547 104.64 65.3408C103.646 66.3269 102.299 66.8805 100.895 66.8799H100.905Z" fill="#112521"/>
<path d="M54.4086 61.6212C54.4091 62.2707 54.2158 62.9058 53.853 63.446C53.4903 63.9863 52.9745 64.4075 52.3709 64.6563C51.7673 64.9052 51.1029 64.9706 50.4619 64.8442C49.8209 64.7177 49.232 64.4052 48.7697 63.9461C48.3075 63.4871 47.9926 62.902 47.8649 62.2651C47.7373 61.6281 47.8025 60.9678 48.0525 60.3677C48.3025 59.7677 48.7259 59.2547 49.2693 58.8938C49.8126 58.5329 50.4514 58.3403 51.1049 58.3403C51.9805 58.341 52.8201 58.6867 53.4394 59.3018C54.0588 59.9169 54.4073 60.7511 54.4086 61.6212Z" fill="#112521"/>
<path d="M76.0119 47.4641C72.2339 47.4641 68.6107 48.9557 65.9393 51.6106C63.2679 54.2656 61.7671 57.8665 61.7671 61.6212C61.7671 65.3758 63.2679 68.9767 65.9393 71.6317C68.6107 74.2867 72.2339 75.7782 76.0119 75.7782C79.7899 75.7782 83.4131 74.2867 86.0845 71.6317C88.7559 68.9767 90.2567 65.3758 90.2567 61.6212C90.2567 57.8665 88.7559 54.2656 86.0845 51.6106C83.4131 48.9557 79.7899 47.4641 76.0119 47.4641ZM74.9745 60.6359H77.0445C77.6547 60.622 78.2617 60.7294 78.8296 60.9519C79.3976 61.1743 79.915 61.5074 80.3516 61.9314C80.7882 62.3554 81.1351 62.8619 81.372 63.4211C81.6088 63.9802 81.7308 64.5808 81.7308 65.1875C81.7308 65.7942 81.6088 66.3948 81.372 66.954C81.1351 67.5131 80.7882 68.0196 80.3516 68.4437C79.915 68.8677 79.3976 69.2007 78.8296 69.4232C78.2617 69.6457 77.6547 69.7531 77.0445 69.7391H77.0033V72.7599C77.0033 73.0218 76.8986 73.273 76.7122 73.4582C76.5258 73.6435 76.273 73.7475 76.0095 73.7475C75.7459 73.7475 75.4932 73.6435 75.3068 73.4582C75.1204 73.273 75.0157 73.0218 75.0157 72.7599V69.7391H71.38C71.1252 69.7266 70.885 69.6172 70.7092 69.4336C70.5333 69.25 70.4353 69.0062 70.4353 68.7527C70.4353 68.4992 70.5333 68.2554 70.7092 68.0718C70.885 67.8881 71.1252 67.7788 71.38 67.7662H77.0396C77.714 67.7458 78.3539 67.4651 78.8237 66.9837C79.2935 66.5023 79.5562 65.8581 79.5562 65.1875C79.5562 64.5169 79.2935 63.8727 78.8237 63.3913C78.3539 62.91 77.714 62.6293 77.0396 62.6088H74.9697C73.7547 62.6088 72.5895 62.1291 71.7304 61.2753C70.8713 60.4215 70.3886 59.2635 70.3886 58.056C70.3886 56.8485 70.8713 55.6905 71.7304 54.8367C72.5895 53.9829 73.7547 53.5032 74.9697 53.5032H75.0109V50.4849C75.0109 50.2229 75.1156 49.9717 75.3019 49.7865C75.4883 49.6013 75.7411 49.4972 76.0046 49.4972C76.2682 49.4972 76.521 49.6013 76.7073 49.7865C76.8937 49.9717 76.9984 50.2229 76.9984 50.4849V53.5032H80.6341C80.8977 53.5032 81.1505 53.6073 81.3368 53.7925C81.5232 53.9777 81.6279 54.2289 81.6279 54.4909C81.6279 54.7528 81.5232 55.004 81.3368 55.1892C81.1505 55.3744 80.8977 55.4785 80.6341 55.4785H74.9648C74.6174 55.4679 74.2714 55.5268 73.9473 55.6517C73.6232 55.7765 73.3277 55.9648 73.0782 56.2053C72.8287 56.4458 72.6303 56.7336 72.4948 57.0517C72.3594 57.3699 72.2896 57.7118 72.2896 58.0572C72.2896 58.4026 72.3594 58.7446 72.4948 59.0627C72.6303 59.3808 72.8287 59.6686 73.0782 59.9091C73.3277 60.1496 73.6232 60.3379 73.9473 60.4627C74.2714 60.5876 74.6174 60.6465 74.9648 60.6359H74.9745Z" fill="#112521"/>
<path d="M104.199 61.6212C104.199 62.2707 104.006 62.9058 103.643 63.446C103.28 63.9863 102.765 64.4075 102.161 64.6563C101.557 64.9052 100.893 64.9706 100.252 64.8442C99.611 64.7177 99.0221 64.4052 98.5598 63.9461C98.0975 63.4871 97.7826 62.902 97.655 62.2651C97.5273 61.6281 97.5926 60.9678 97.8426 60.3677C98.0925 59.7677 98.516 59.2547 99.0593 58.8938C99.6027 58.5329 100.241 58.3403 100.895 58.3403C101.77 58.3416 102.61 58.6876 103.229 59.3025C103.848 59.9175 104.197 60.7513 104.199 61.6212Z" fill="#112521"/>
<path d="M110.006 86.1824H41.994C41.8595 86.1758 41.7251 86.1964 41.5989 86.243C41.4727 86.2896 41.3573 86.3612 41.2598 86.4534C41.1623 86.5457 41.0846 86.6566 41.0316 86.7796C40.9785 86.9026 40.9512 87.035 40.9512 87.1688C40.9512 87.3026 40.9785 87.435 41.0316 87.558C41.0846 87.681 41.1623 87.7919 41.2598 87.8842C41.3573 87.9764 41.4727 88.0481 41.5989 88.0946C41.7251 88.1412 41.8595 88.1619 41.994 88.1553H110.006C110.141 88.1619 110.275 88.1412 110.402 88.0946C110.528 88.0481 110.643 87.9764 110.741 87.8842C110.838 87.7919 110.916 87.681 110.969 87.558C111.022 87.435 111.049 87.3026 111.049 87.1688C111.049 87.035 111.022 86.9026 110.969 86.7796C110.916 86.6566 110.838 86.5457 110.741 86.4534C110.643 86.3612 110.528 86.2896 110.402 86.243C110.275 86.1964 110.141 86.1758 110.006 86.1824Z" fill="#112521"/>
<path d="M110.006 82.4316H41.994C41.8595 82.425 41.7251 82.4456 41.5989 82.4922C41.4727 82.5388 41.3573 82.6104 41.2598 82.7027C41.1623 82.7949 41.0846 82.9059 41.0316 83.0289C40.9785 83.1519 40.9512 83.2843 40.9512 83.4181C40.9512 83.5519 40.9785 83.6843 41.0316 83.8073C41.0846 83.9302 41.1623 84.0412 41.2598 84.1335C41.3573 84.2257 41.4727 84.2973 41.5989 84.3439C41.7251 84.3905 41.8595 84.4111 41.994 84.4045H110.006C110.141 84.4111 110.275 84.3905 110.402 84.3439C110.528 84.2973 110.643 84.2257 110.741 84.1335C110.838 84.0412 110.916 83.9302 110.969 83.8073C111.022 83.6843 111.049 83.5519 111.049 83.4181C111.049 83.2843 111.022 83.1519 110.969 83.0289C110.916 82.9059 110.838 82.7949 110.741 82.7027C110.643 82.6104 110.528 82.5388 110.402 82.4922C110.275 82.4456 110.141 82.425 110.006 82.4316Z" fill="#112521"/>
<path d="M48.8386 36.8024C48.9581 36.8543 49.0868 36.8823 49.2172 36.8847C49.3475 36.8871 49.4771 36.8639 49.5985 36.8165C49.7198 36.769 49.8306 36.6983 49.9244 36.6082C50.0182 36.5182 50.0932 36.4106 50.1451 36.2917C52.2665 31.4662 55.7125 27.332 60.0884 24.3626C64.4643 21.3932 69.5932 19.7086 74.8878 19.5017C80.1823 19.2948 85.4285 20.574 90.0255 23.1928C94.6225 25.8116 98.3844 29.6641 100.881 34.3092L93.1994 31.9894C93.073 31.9457 92.939 31.9277 92.8054 31.9367C92.6718 31.9457 92.5414 31.9814 92.4221 32.0417C92.3027 32.1021 92.1969 32.1857 92.1109 32.2877C92.0249 32.3897 91.9605 32.5079 91.9216 32.6352C91.8827 32.7626 91.8701 32.8964 91.8846 33.0287C91.899 33.1609 91.9402 33.289 92.0057 33.405C92.0711 33.5211 92.1595 33.6228 92.2655 33.7041C92.3715 33.7854 92.493 33.8445 92.6226 33.878L102.483 36.8554C102.576 36.8842 102.673 36.8988 102.771 36.8988C102.934 36.8988 103.095 36.8591 103.239 36.7831C103.471 36.6582 103.645 36.4482 103.724 36.1978L106.72 26.4008C106.784 26.154 106.75 25.8919 106.625 25.6694C106.499 25.447 106.292 25.2814 106.046 25.2073C105.801 25.1332 105.536 25.1564 105.307 25.272C105.079 25.3876 104.904 25.5867 104.819 25.8275L102.553 33.2348C99.8602 28.2892 95.8233 24.1951 90.9027 21.4193C85.982 18.6434 80.3755 17.2975 74.7225 17.5351C69.0694 17.7727 63.5972 19.5841 58.9299 22.7628C54.2626 25.9416 50.5879 30.3598 48.3248 35.5136C48.223 35.7525 48.2198 36.0215 48.316 36.2627C48.4121 36.5038 48.5999 36.6977 48.8386 36.8024Z" fill="#112521"/>
<path d="M106.164 91.2C106.045 91.1481 105.916 91.12 105.786 91.1174C105.656 91.1148 105.526 91.1378 105.405 91.185C105.284 91.2322 105.173 91.3027 105.079 91.3925C104.985 91.4823 104.91 91.5896 104.858 91.7083C102.738 96.5344 99.2927 100.67 94.9174 103.64C90.5422 106.611 85.4136 108.297 80.119 108.505C74.8244 108.713 69.5779 107.435 64.9802 104.817C60.3825 102.199 56.6196 98.3475 54.1224 93.7029L61.8011 96.0226C61.9271 96.065 62.0604 96.0818 62.1931 96.072C62.3258 96.0623 62.4552 96.0261 62.5735 95.9657C62.6919 95.9054 62.7969 95.822 62.8822 95.7205C62.9675 95.619 63.0315 95.5016 63.0703 95.3751C63.1091 95.2486 63.1219 95.1157 63.108 94.9842C63.0942 94.8527 63.0539 94.7253 62.9895 94.6095C62.9252 94.4938 62.8381 94.392 62.7335 94.3104C62.6289 94.2287 62.5088 94.1687 62.3804 94.1341L52.5203 91.1591C52.4936 91.1591 52.4645 91.1591 52.4355 91.1446H52.4015C52.3463 91.135 52.2904 91.1302 52.2343 91.1302H52.2197C52.0612 91.1308 51.905 91.1688 51.7641 91.241C51.6486 91.3016 51.5464 91.3844 51.4632 91.4844C51.38 91.5844 51.3175 91.6998 51.2793 91.8239L48.2834 101.623C48.2453 101.747 48.2323 101.878 48.2449 102.007C48.2576 102.136 48.2957 102.261 48.3572 102.375C48.4187 102.49 48.5022 102.591 48.6031 102.673C48.704 102.755 48.8203 102.817 48.9452 102.854C49.0386 102.883 49.1358 102.898 49.2336 102.898C49.4467 102.897 49.654 102.829 49.8251 102.703C49.9962 102.577 50.1219 102.399 50.1837 102.197L52.4476 94.7893C55.141 99.7341 59.1781 103.827 64.0986 106.603C69.0192 109.378 74.6253 110.723 80.278 110.486C85.9306 110.248 91.4025 108.437 96.0697 105.259C100.737 102.081 104.412 97.6636 106.676 92.5105C106.73 92.3912 106.76 92.2624 106.763 92.1316C106.767 92.0008 106.744 91.8706 106.697 91.7487C106.649 91.6267 106.577 91.5153 106.486 91.4211C106.395 91.3269 106.285 91.2518 106.164 91.2Z" fill="#112521"/>
</g>
</g>
<defs>
<filter id="filter0_d_2_18677" x="0" y="0" width="152" height="152" filterUnits="userSpaceOnUse" color-interpolation-filters="sRGB">
<feFlood flood-opacity="0" result="BackgroundImageFix"/>
<feColorMatrix in="SourceAlpha" type="matrix" values="0 0 0 0 0 0 0 0 0 0 0 0 0 0 0 0 0 0 127 0" result="hardAlpha"/>
<feOffset dy="12"/>
<feGaussianBlur stdDeviation="12"/>
<feComposite in2="hardAlpha" operator="out"/>
<feColorMatrix type="matrix" values="0 0 0 0 0.0255208 0 0 0 0 0.291667 0 0 0 0 0.211823 0 0 0 0.08 0"/>
<feBlend mode="normal" in2="BackgroundImageFix" result="effect1_dropShadow_2_18677"/>
<feBlend mode="normal" in="SourceGraphic" in2="effect1_dropShadow_2_18677" result="shape"/>
</filter>
<clipPath id="clip0_2_18677">
<rect width="70" height="93" fill="white" transform="translate(41 17.5)"/>
</clipPath>
</defs>
</svg>
