<svg width="152" height="152" viewBox="0 0 152 152" fill="none" xmlns="http://www.w3.org/2000/svg">
<g filter="url(#filter0_d_2_13271)">
<rect x="24" y="12" width="104" height="104" rx="52" fill="white" shape-rendering="crispEdges"/>
<g clip-path="url(#clip0_2_13271)">
<path d="M66.5941 82.5195L63.6719 90H88.3283L85.4061 82.5195H66.5941Z" fill="#112520"/>
<path d="M48.1992 41.198V75.3251H103.801V41.198H48.1992ZM53.297 72.8495C53.3017 72.9372 53.287 73.0249 53.254 73.1072C53.2209 73.1895 53.1701 73.2647 53.1047 73.3283C53.0392 73.3919 52.9605 73.4426 52.8733 73.4772C52.786 73.5118 52.6921 73.5296 52.5971 73.5296C52.5022 73.5296 52.4083 73.5118 52.3211 73.4772C52.2338 73.4426 52.1551 73.3919 52.0896 73.3283C52.0242 73.2647 51.9734 73.1895 51.9403 73.1072C51.9073 73.0249 51.8927 72.9372 51.8973 72.8495V65.7642C51.8927 65.6765 51.9073 65.5888 51.9403 65.5065C51.9734 65.4242 52.0242 65.3489 52.0896 65.2853C52.1551 65.2217 52.2338 65.1711 52.3211 65.1365C52.4083 65.1019 52.5022 65.084 52.5971 65.084C52.6921 65.084 52.786 65.1019 52.8733 65.1365C52.9605 65.1711 53.0392 65.2217 53.1047 65.2853C53.1701 65.3489 53.2209 65.4242 53.254 65.5065C53.287 65.5888 53.3017 65.6765 53.297 65.7642V72.8495ZM57.1745 72.8495C57.1745 73.0214 57.1007 73.1862 56.9693 73.3078C56.8379 73.4293 56.6597 73.4976 56.4739 73.4976C56.288 73.4976 56.1098 73.4293 55.9784 73.3078C55.847 73.1862 55.7732 73.0214 55.7732 72.8495V65.7642C55.7732 65.5923 55.847 65.4274 55.9784 65.3059C56.1098 65.1843 56.288 65.116 56.4739 65.116C56.6597 65.116 56.8379 65.1843 56.9693 65.3059C57.1007 65.4274 57.1745 65.5923 57.1745 65.7642V72.8495ZM61.0504 72.8495C61.0504 73.0214 60.9766 73.1862 60.8452 73.3078C60.7138 73.4293 60.5356 73.4976 60.3497 73.4976C60.1639 73.4976 59.9857 73.4293 59.8543 73.3078C59.7229 73.1862 59.6491 73.0214 59.6491 72.8495V59.6116C59.6491 59.4397 59.7229 59.2748 59.8543 59.1533C59.9857 59.0317 60.1639 58.9634 60.3497 58.9634C60.5356 58.9634 60.7138 59.0317 60.8452 59.1533C60.9766 59.2748 61.0504 59.4397 61.0504 59.6116V72.8495ZM60.3497 50.0744H52.598C52.4122 50.0744 52.234 50.0061 52.1026 49.8846C51.9712 49.763 51.8973 49.5981 51.8973 49.4262C51.8973 49.2543 51.9712 49.0895 52.1026 48.9679C52.234 48.8464 52.4122 48.7781 52.598 48.7781H60.3497C60.4417 48.7781 60.5328 48.7949 60.6179 48.8274C60.7029 48.86 60.7801 48.9078 60.8452 48.9679C60.9102 49.0281 60.9618 49.0996 60.997 49.1782C61.0323 49.2569 61.0504 49.3411 61.0504 49.4262C61.0504 49.5114 61.0323 49.5956 60.997 49.6743C60.9618 49.7529 60.9102 49.8244 60.8452 49.8846C60.7801 49.9447 60.7029 49.9925 60.6179 50.0251C60.5328 50.0576 60.4417 50.0744 60.3497 50.0744ZM64.9262 72.8495C64.9309 72.9372 64.9163 73.0249 64.8832 73.1072C64.8502 73.1895 64.7994 73.2647 64.734 73.3283C64.6685 73.3919 64.5898 73.4426 64.5025 73.4772C64.4153 73.5118 64.3214 73.5296 64.2264 73.5296C64.1315 73.5296 64.0376 73.5118 63.9503 73.4772C63.8631 73.4426 63.7843 73.3919 63.7189 73.3283C63.6535 73.2647 63.6027 73.1895 63.5696 73.1072C63.5366 73.0249 63.5219 72.9372 63.5266 72.8495V58.2615C63.5355 58.0954 63.6131 57.9387 63.7434 57.8241C63.8736 57.7094 64.0466 57.6454 64.2264 57.6454C64.4063 57.6454 64.5792 57.7094 64.7095 57.8241C64.8398 57.9387 64.9174 58.0954 64.9262 58.2615V72.8495ZM64.2256 46.576H52.6048C52.51 46.5803 52.4153 46.5668 52.3263 46.5362C52.2373 46.5057 52.156 46.4587 52.0872 46.3981C52.0184 46.3376 51.9637 46.2648 51.9263 46.1841C51.8889 46.1034 51.8696 46.0165 51.8696 45.9286C51.8696 45.8408 51.8889 45.7539 51.9263 45.6732C51.9637 45.5925 52.0184 45.5197 52.0872 45.4592C52.156 45.3986 52.2373 45.3516 52.3263 45.3211C52.4153 45.2905 52.51 45.277 52.6048 45.2813H64.2256C64.3204 45.277 64.4152 45.2905 64.5042 45.3211C64.5931 45.3516 64.6745 45.3986 64.7432 45.4592C64.812 45.5197 64.8667 45.5925 64.9041 45.6732C64.9415 45.7539 64.9608 45.8408 64.9608 45.9286C64.9608 46.0165 64.9415 46.1034 64.9041 46.1841C64.8667 46.2648 64.812 46.3376 64.7432 46.3981C64.6745 46.4587 64.5931 46.5057 64.5042 46.5362C64.4152 46.5668 64.3204 46.5803 64.2256 46.576ZM68.8004 72.8495C68.8051 72.9372 68.7904 73.0249 68.7574 73.1072C68.7243 73.1895 68.6736 73.2647 68.6081 73.3283C68.5427 73.3919 68.4639 73.4426 68.3767 73.4772C68.2894 73.5118 68.1955 73.5296 68.1006 73.5296C68.0057 73.5296 67.9117 73.5118 67.8245 73.4772C67.7372 73.4426 67.6585 73.3919 67.5931 73.3283C67.5276 73.2647 67.4768 73.1895 67.4438 73.1072C67.4107 73.0249 67.3961 72.9372 67.4008 72.8495V61.322C67.3961 61.2343 67.4107 61.1467 67.4438 61.0644C67.4768 60.982 67.5276 60.9068 67.5931 60.8432C67.6585 60.7796 67.7372 60.7289 67.8245 60.6943C67.9117 60.6597 68.0057 60.6419 68.1006 60.6419C68.1955 60.6419 68.2894 60.6597 68.3767 60.6943C68.4639 60.7289 68.5427 60.7796 68.6081 60.8432C68.6736 60.9068 68.7243 60.982 68.7574 61.0644C68.7904 61.1467 68.8051 61.2343 68.8004 61.322V72.8495ZM72.6779 72.8495C72.6779 73.0214 72.6041 73.1862 72.4727 73.3078C72.3413 73.4293 72.1631 73.4976 71.9773 73.4976C71.7915 73.4976 71.6132 73.4293 71.4818 73.3078C71.3504 73.1862 71.2766 73.0214 71.2766 72.8495V58.2615C71.2766 58.0896 71.3504 57.9248 71.4818 57.8032C71.6132 57.6817 71.7915 57.6134 71.9773 57.6134C72.1631 57.6134 72.3413 57.6817 72.4727 57.8032C72.6041 57.9248 72.6779 58.0896 72.6779 58.2615V72.8495ZM69.9864 47.447H70.7161C71.2077 47.4458 71.6818 47.6153 72.0447 47.922C72.4077 48.2286 72.6329 48.6502 72.6759 49.1032C72.7189 49.5562 72.5764 50.0076 72.2768 50.368C71.9772 50.7285 71.5422 50.9718 71.0579 51.0498V51.7501C71.0626 51.8378 71.0479 51.9254 71.0149 52.0078C70.9818 52.0901 70.931 52.1653 70.8656 52.2289C70.8002 52.2925 70.7214 52.3432 70.6342 52.3778C70.5469 52.4124 70.453 52.4302 70.3581 52.4302C70.2631 52.4302 70.1692 52.4124 70.082 52.3778C69.9947 52.3432 69.916 52.2925 69.8505 52.2289C69.7851 52.1653 69.7343 52.0901 69.7013 52.0078C69.6682 51.9254 69.6536 51.8378 69.6583 51.7501V51.0861H68.732C68.64 51.0861 68.5489 51.0694 68.4639 51.0368C68.3789 51.0042 68.3016 50.9565 68.2366 50.8963C68.1715 50.8361 68.1199 50.7647 68.0847 50.686C68.0495 50.6074 68.0314 50.5231 68.0314 50.438C68.0314 50.3529 68.0495 50.2686 68.0847 50.1899C68.1199 50.1113 68.1715 50.0399 68.2366 49.9797C68.3016 49.9195 68.3789 49.8717 68.4639 49.8392C68.5489 49.8066 68.64 49.7898 68.732 49.7898H70.7229C70.872 49.7898 71.0151 49.735 71.1205 49.6375C71.2259 49.54 71.2852 49.4077 71.2852 49.2697C71.2852 49.1318 71.2259 48.9995 71.1205 48.902C71.0151 48.8044 70.872 48.7496 70.7229 48.7496H69.9932C69.5003 48.7534 69.024 48.5851 68.6592 48.2785C68.2943 47.9718 68.0678 47.5493 68.0247 47.0951C67.9816 46.6408 68.1251 46.1883 68.4265 45.8275C68.728 45.4667 69.1654 45.2243 69.6514 45.1485V44.4561C69.6467 44.3684 69.6614 44.2807 69.6944 44.1984C69.7275 44.1161 69.7783 44.0409 69.8437 43.9773C69.9091 43.9136 69.9879 43.863 70.0751 43.8284C70.1624 43.7938 70.2563 43.776 70.3512 43.776C70.4462 43.776 70.5401 43.7938 70.6273 43.8284C70.7146 43.863 70.7933 43.9136 70.8588 43.9773C70.9242 44.0409 70.975 44.1161 71.0081 44.1984C71.0411 44.2807 71.0557 44.3684 71.0511 44.4561V45.1106H71.9773C72.0693 45.1106 72.1604 45.1273 72.2454 45.1599C72.3304 45.1925 72.4077 45.2402 72.4727 45.3004C72.5378 45.3606 72.5894 45.432 72.6246 45.5107C72.6598 45.5893 72.6779 45.6736 72.6779 45.7587C72.6779 45.8438 72.6598 45.9281 72.6246 46.0067C72.5894 46.0854 72.5378 46.1568 72.4727 46.217C72.4077 46.2772 72.3304 46.3249 72.2454 46.3575C72.1604 46.3901 72.0693 46.4069 71.9773 46.4069H69.9864C69.8428 46.4142 69.7078 46.4721 69.609 46.5687C69.5102 46.6653 69.4551 46.7932 69.4551 46.9262C69.4551 47.0591 69.5102 47.1871 69.609 47.2836C69.7078 47.3802 69.8428 47.4381 69.9864 47.4455V47.447ZM76.5538 72.8495C76.5538 73.0214 76.48 73.1862 76.3486 73.3078C76.2172 73.4293 76.039 73.4976 75.8531 73.4976C75.6673 73.4976 75.4891 73.4293 75.3577 73.3078C75.2263 73.1862 75.1525 73.0214 75.1525 72.8495V61.322C75.1525 61.1501 75.2263 60.9853 75.3577 60.8637C75.4891 60.7422 75.6673 60.6739 75.8531 60.6739C76.039 60.6739 76.2172 60.7422 76.3486 60.8637C76.48 60.9853 76.5538 61.1501 76.5538 61.322V72.8495ZM80.4297 72.8495C80.4344 72.9372 80.4197 73.0249 80.3867 73.1072C80.3536 73.1895 80.3028 73.2647 80.2374 73.3283C80.1719 73.3919 80.0932 73.4426 80.006 73.4772C79.9187 73.5118 79.8248 73.5296 79.7298 73.5296C79.6349 73.5296 79.541 73.5118 79.4537 73.4772C79.3665 73.4426 79.2878 73.3919 79.2223 73.3283C79.1569 73.2647 79.1061 73.1895 79.073 73.1072C79.04 73.0249 79.0254 72.9372 79.03 72.8495V53.7878C79.0254 53.7001 79.04 53.6124 79.073 53.5301C79.1061 53.4478 79.1569 53.3725 79.2223 53.3089C79.2878 53.2453 79.3665 53.1947 79.4537 53.1601C79.541 53.1255 79.6349 53.1076 79.7298 53.1076C79.8248 53.1076 79.9187 53.1255 80.006 53.1601C80.0932 53.1947 80.1719 53.2453 80.2374 53.3089C80.3028 53.3725 80.3536 53.4478 80.3867 53.5301C80.4197 53.6124 80.4344 53.7001 80.4297 53.7878V72.8495ZM84.3055 72.8495C84.3102 72.9372 84.2956 73.0249 84.2625 73.1072C84.2295 73.1895 84.1787 73.2647 84.1132 73.3283C84.0478 73.3919 83.969 73.4426 83.8818 73.4772C83.7946 73.5118 83.7006 73.5296 83.6057 73.5296C83.5108 73.5296 83.4168 73.5118 83.3296 73.4772C83.2423 73.4426 83.1636 73.3919 83.0982 73.3283C83.0327 73.2647 82.982 73.1895 82.9489 73.1072C82.9158 73.0249 82.9012 72.9372 82.9059 72.8495V64.6797C82.9012 64.592 82.9158 64.5044 82.9489 64.422C82.982 64.3397 83.0327 64.2645 83.0982 64.2009C83.1636 64.1373 83.2423 64.0866 83.3296 64.052C83.4168 64.0174 83.5108 63.9996 83.6057 63.9996C83.7006 63.9996 83.7946 64.0174 83.8818 64.052C83.969 64.0866 84.0478 64.1373 84.1132 64.2009C84.1787 64.2645 84.2295 64.3397 84.2625 64.422C84.2956 64.5044 84.3102 64.592 84.3055 64.6797V72.8495ZM88.1814 72.8495C88.1861 72.9372 88.1714 73.0249 88.1384 73.1072C88.1053 73.1895 88.0545 73.2647 87.9891 73.3283C87.9236 73.3919 87.8449 73.4426 87.7577 73.4772C87.6704 73.5118 87.5765 73.5296 87.4815 73.5296C87.3866 73.5296 87.2927 73.5118 87.2055 73.4772C87.1182 73.4426 87.0395 73.3919 86.974 73.3283C86.9086 73.2647 86.8578 73.1895 86.8247 73.1072C86.7917 73.0249 86.7771 72.9372 86.7817 72.8495V55.4208C86.7906 55.2546 86.8682 55.098 86.9985 54.9833C87.1288 54.8686 87.3017 54.8046 87.4815 54.8046C87.6614 54.8046 87.8343 54.8686 87.9646 54.9833C88.0949 55.098 88.1725 55.2546 88.1814 55.4208V72.8495ZM92.0589 72.8495C92.0589 73.0214 91.9851 73.1862 91.8537 73.3078C91.7223 73.4293 91.5441 73.4976 91.3583 73.4976C91.1724 73.4976 90.9942 73.4293 90.8628 73.3078C90.7314 73.1862 90.6576 73.0214 90.6576 72.8495V48.0968C90.6576 47.9249 90.7314 47.76 90.8628 47.6385C90.9942 47.5169 91.1724 47.4486 91.3583 47.4486C91.5441 47.4486 91.7223 47.5169 91.8537 47.6385C91.9851 47.76 92.0589 47.9249 92.0589 48.0968V72.8495ZM95.9331 72.8495C95.9378 72.9372 95.9231 73.0249 95.8901 73.1072C95.857 73.1895 95.8062 73.2647 95.7408 73.3283C95.6753 73.3919 95.5966 73.4426 95.5094 73.4772C95.4221 73.5118 95.3282 73.5296 95.2333 73.5296C95.1384 73.5296 95.0444 73.5118 94.9572 73.4772C94.8699 73.4426 94.7912 73.3919 94.7257 73.3283C94.6603 73.2647 94.6095 73.1895 94.5765 73.1072C94.5434 73.0249 94.5288 72.9372 94.5335 72.8495V51.2458C94.5423 51.0796 94.6199 50.923 94.7502 50.8083C94.8805 50.6936 95.0534 50.6296 95.2333 50.6296C95.4131 50.6296 95.5861 50.6936 95.7163 50.8083C95.8466 50.923 95.9242 51.0796 95.9331 51.2458V72.8495ZM99.8089 72.8495C99.8136 72.9372 99.799 73.0249 99.7659 73.1072C99.7329 73.1895 99.6821 73.2647 99.6166 73.3283C99.5512 73.3919 99.4725 73.4426 99.3852 73.4772C99.298 73.5118 99.204 73.5296 99.1091 73.5296C99.0142 73.5296 98.9203 73.5118 98.833 73.4772C98.7458 73.4426 98.667 73.3919 98.6016 73.3283C98.5361 73.2647 98.4854 73.1895 98.4523 73.1072C98.4193 73.0249 98.4046 72.9372 98.4093 72.8495V58.2615C98.4182 58.0954 98.4958 57.9387 98.6261 57.8241C98.7563 57.7094 98.9293 57.6454 99.1091 57.6454C99.289 57.6454 99.4619 57.7094 99.5922 57.8241C99.7224 57.9387 99.8 58.0954 99.8089 58.2615V72.8495Z" fill="#112520"/>
<path d="M104.573 37.9968H47.4267C46.7834 37.9977 46.1667 38.2344 45.7118 38.6552C45.2569 39.076 45.0009 39.6465 45 40.2416V81.2248H107V40.2448C107 39.6491 106.744 39.0778 106.289 38.6564C105.834 38.2349 105.217 37.9977 104.573 37.9968ZM84.3891 79.5001H67.6109C67.5161 79.5044 67.4213 79.4909 67.3323 79.4603C67.2433 79.4297 67.162 79.3828 67.0932 79.3222C67.0244 79.2617 66.9697 79.1888 66.9323 79.1081C66.8949 79.0274 66.8756 78.9405 66.8756 78.8527C66.8756 78.7649 66.8949 78.678 66.9323 78.5973C66.9697 78.5166 67.0244 78.4438 67.0932 78.3832C67.162 78.3227 67.2433 78.2757 67.3323 78.2451C67.4213 78.2146 67.5161 78.201 67.6109 78.2054H84.3891C84.4839 78.201 84.5787 78.2146 84.6677 78.2451C84.7567 78.2757 84.838 78.3227 84.9068 78.3832C84.9755 78.4438 85.0303 78.5166 85.0677 78.5973C85.1051 78.678 85.1244 78.7649 85.1244 78.8527C85.1244 78.9405 85.1051 79.0274 85.0677 79.1081C85.0303 79.1888 84.9755 79.2617 84.9068 79.3222C84.838 79.3828 84.7567 79.4297 84.6677 79.4603C84.5787 79.4909 84.4839 79.5044 84.3891 79.5001ZM105.202 75.9732C105.202 76.1449 105.128 76.3093 104.996 76.4305C104.865 76.5517 104.687 76.6198 104.502 76.6198H47.4985C47.3129 76.6198 47.135 76.5517 47.0036 76.4305C46.8723 76.3093 46.7983 76.1449 46.7978 75.9732V40.5499C46.7983 40.3783 46.8723 40.2138 47.0036 40.0926C47.135 39.9714 47.3129 39.9033 47.4985 39.9033H104.502C104.687 39.9033 104.865 39.9714 104.996 40.0926C105.128 40.2138 105.202 40.3783 105.202 40.5499V75.9732Z" fill="#112520"/>
</g>
</g>
<defs>
<filter id="filter0_d_2_13271" x="0" y="0" width="152" height="152" filterUnits="userSpaceOnUse" color-interpolation-filters="sRGB">
<feFlood flood-opacity="0" result="BackgroundImageFix"/>
<feColorMatrix in="SourceAlpha" type="matrix" values="0 0 0 0 0 0 0 0 0 0 0 0 0 0 0 0 0 0 127 0" result="hardAlpha"/>
<feOffset dy="12"/>
<feGaussianBlur stdDeviation="12"/>
<feComposite in2="hardAlpha" operator="out"/>
<feColorMatrix type="matrix" values="0 0 0 0 0.0255208 0 0 0 0 0.291667 0 0 0 0 0.211823 0 0 0 0.08 0"/>
<feBlend mode="normal" in2="BackgroundImageFix" result="effect1_dropShadow_2_13271"/>
<feBlend mode="normal" in="SourceGraphic" in2="effect1_dropShadow_2_13271" result="shape"/>
</filter>
<clipPath id="clip0_2_13271">
<rect width="62" height="52" fill="white" transform="translate(45 38)"/>
</clipPath>
</defs>
</svg>
