<svg width="56" height="57" viewBox="0 0 56 57" fill="none" xmlns="http://www.w3.org/2000/svg">
<rect x="1" y="1.5" width="54" height="54" rx="27" stroke="white" stroke-opacity="0.16" stroke-width="2"/>
<path d="M34.5383 36.9573H31.3531C31.2038 36.9573 31.0605 36.898 30.9549 36.7924C30.8494 36.6868 30.79 36.5436 30.79 36.3943C30.79 36.245 30.8494 36.1018 30.9549 35.9962C31.0605 35.8906 31.2038 35.8313 31.3531 35.8313H34.5383C35.6463 35.8297 36.7084 35.3888 37.4918 34.6053C38.2751 33.8218 38.7158 32.7595 38.717 31.6515C38.717 31.5022 38.7764 31.359 38.8819 31.2534C38.9875 31.1478 39.1307 31.0885 39.2801 31.0885C39.4294 31.0885 39.5726 31.1478 39.6782 31.2534C39.7838 31.359 39.8431 31.5022 39.8431 31.6515C39.8416 33.0581 39.2822 34.4066 38.2877 35.4013C37.2932 36.3959 35.9448 36.9556 34.5383 36.9573Z" fill="#010815"/>
<path d="M33.271 38.8745C33.1971 38.8746 33.1239 38.8601 33.0556 38.8319C32.9873 38.8036 32.9252 38.7621 32.873 38.7098L30.9561 36.7925C30.9038 36.7403 30.8622 36.6782 30.8339 36.6099C30.8056 36.5416 30.791 36.4683 30.791 36.3944C30.791 36.3204 30.8056 36.2472 30.8339 36.1789C30.8622 36.1106 30.9038 36.0485 30.9561 35.9962L32.873 34.079C32.9792 33.9765 33.1214 33.9197 33.2691 33.921C33.4167 33.9224 33.5579 33.9816 33.6623 34.086C33.7667 34.1904 33.8258 34.3317 33.8271 34.4793C33.8283 34.6269 33.7716 34.7691 33.669 34.8753L32.1504 36.3942L33.669 37.9135C33.7477 37.9922 33.8012 38.0925 33.8229 38.2017C33.8446 38.3109 33.8335 38.4241 33.7909 38.5269C33.7483 38.6298 33.6762 38.7177 33.5836 38.7795C33.4911 38.8414 33.3823 38.8745 33.271 38.8745Z" fill="#010815"/>
<path d="M16.7252 25.9162C16.6512 25.9163 16.578 25.9017 16.5096 25.8734C16.4413 25.8452 16.3792 25.8037 16.3269 25.7514C16.2746 25.6991 16.2332 25.637 16.2049 25.5687C16.1766 25.5004 16.1621 25.4271 16.1621 25.3532C16.1636 23.9465 16.7231 22.5978 17.7178 21.6031C18.7125 20.6084 20.0612 20.0489 21.4679 20.0474H24.6531C24.8024 20.0474 24.9457 20.1067 25.0512 20.2123C25.1568 20.3179 25.2162 20.4611 25.2162 20.6104C25.2162 20.7597 25.1568 20.9029 25.0512 21.0085C24.9457 21.1141 24.8024 21.1735 24.6531 21.1735H21.4679C20.36 21.1751 19.2979 21.616 18.5146 22.3995C17.7314 23.1831 17.2908 24.2453 17.2895 25.3532C17.2895 25.4272 17.2749 25.5006 17.2466 25.569C17.2182 25.6374 17.1766 25.6995 17.1242 25.7518C17.0718 25.8042 17.0095 25.8456 16.9411 25.8738C16.8726 25.902 16.7992 25.9164 16.7252 25.9162Z" fill="#010815"/>
<path d="M22.7355 23.0907C22.6242 23.0905 22.5154 23.0574 22.4229 22.9955C22.3304 22.9336 22.2583 22.8456 22.2157 22.7428C22.1731 22.6399 22.162 22.5268 22.1836 22.4176C22.2053 22.3084 22.2589 22.2081 22.3375 22.1293L23.8561 20.6104L22.3375 19.0911C22.2349 18.9849 22.1781 18.8427 22.1794 18.6951C22.1806 18.5475 22.2398 18.4062 22.3442 18.3018C22.4486 18.1974 22.5898 18.1382 22.7374 18.1369C22.885 18.1356 23.0273 18.1923 23.1335 18.2948L25.0504 20.2121C25.1027 20.2643 25.1442 20.3264 25.1726 20.3947C25.2009 20.463 25.2155 20.5363 25.2155 20.6102C25.2155 20.6842 25.2009 20.7574 25.1726 20.8257C25.1442 20.894 25.1027 20.9561 25.0504 21.0084L23.1335 22.9256C23.0813 22.978 23.0193 23.0196 22.951 23.0479C22.8827 23.0762 22.8094 23.0907 22.7355 23.0907Z" fill="#010815"/>
<path d="M28.3578 37.1958C29.3215 33.1565 26.8283 29.1008 22.789 28.1371C18.7497 27.1734 14.694 29.6666 13.7303 33.7059C12.7666 37.7452 15.2598 41.8009 19.2991 42.7646C23.3384 43.7283 27.3941 41.2351 28.3578 37.1958Z" fill="#00D094"/>
<path d="M42.3307 23.2522C43.2753 19.2084 40.7629 15.1645 36.7192 14.2199C32.6754 13.2753 28.6315 15.7877 27.6869 19.8315C26.7423 23.8753 29.2547 27.9192 33.2985 28.8638C37.3423 29.8084 41.3862 27.296 42.3307 23.2522Z" fill="#00D094"/>
<path d="M37.3901 21.3838C37.5038 21.3807 37.6118 21.3333 37.6912 21.2518C37.7705 21.1703 37.8149 21.0611 37.8149 20.9473C37.8149 20.8336 37.7705 20.7243 37.6912 20.6428C37.6118 20.5613 37.5038 20.514 37.3901 20.5109H36.063L37.6987 18.8751C37.7392 18.8346 37.7714 18.7865 37.7933 18.7336C37.8152 18.6806 37.8265 18.6239 37.8265 18.5666C37.8265 18.5093 37.8152 18.4526 37.7933 18.3996C37.7714 18.3467 37.7392 18.2986 37.6987 18.2581C37.6582 18.2175 37.6101 18.1854 37.5571 18.1635C37.5042 18.1415 37.4474 18.1302 37.3901 18.1302C37.3328 18.1302 37.2761 18.1415 37.2232 18.1635C37.1702 18.1854 37.1221 18.2175 37.0816 18.2581L35.0093 20.3304L32.9373 18.2584C32.8968 18.2179 32.8487 18.1857 32.7957 18.1638C32.7428 18.1419 32.686 18.1306 32.6287 18.1306C32.5714 18.1306 32.5147 18.1419 32.4618 18.1638C32.4088 18.1857 32.3607 18.2179 32.3202 18.2584C32.2797 18.2989 32.2475 18.347 32.2256 18.3999C32.2037 18.4529 32.1924 18.5096 32.1924 18.5669C32.1924 18.6242 32.2037 18.681 32.2256 18.7339C32.2475 18.7868 32.2797 18.835 32.3202 18.8755L33.9559 20.5109H32.6287C32.515 20.514 32.407 20.5613 32.3277 20.6428C32.2484 20.7243 32.204 20.8336 32.204 20.9473C32.204 21.0611 32.2484 21.1703 32.3277 21.2518C32.407 21.3333 32.515 21.3807 32.6287 21.3838H34.573V22.1945H32.6287C32.513 22.1945 32.4021 22.2405 32.3202 22.3223C32.2384 22.4041 32.1925 22.5151 32.1925 22.6308C32.1925 22.7465 32.2384 22.8575 32.3202 22.9393C32.4021 23.0211 32.513 23.0671 32.6287 23.0671H34.573V25.1726C34.5714 25.2309 34.5815 25.2889 34.6028 25.3432C34.624 25.3976 34.6559 25.4471 34.6966 25.4889C34.7372 25.5307 34.7859 25.5639 34.8396 25.5866C34.8934 25.6093 34.9511 25.621 35.0094 25.621C35.0678 25.621 35.1255 25.6093 35.1793 25.5866C35.233 25.5639 35.2816 25.5307 35.3223 25.4889C35.363 25.4471 35.3949 25.3976 35.4161 25.3432C35.4373 25.2889 35.4475 25.2309 35.4459 25.1726V23.0671H37.3901C37.5059 23.0671 37.6168 23.0211 37.6986 22.9393C37.7805 22.8575 37.8264 22.7465 37.8264 22.6308C37.8264 22.5151 37.7805 22.4041 37.6986 22.3223C37.6168 22.2405 37.5059 22.1945 37.3901 22.1945H35.4459V21.3838H37.3901Z" fill="#010815"/>
<path d="M23.39 36.815C23.39 35.7372 22.5857 35.3048 21.411 35.0133V33.0613C21.7585 33.1477 22.0862 33.2999 22.3762 33.5098C22.4674 33.5734 22.5797 33.5993 22.6895 33.582C22.7994 33.5646 22.8982 33.5054 22.9653 33.4168L22.9682 33.4129C23.0037 33.3662 23.0292 33.3128 23.0434 33.2558C23.0576 33.1989 23.0601 33.1397 23.0507 33.0819C23.0413 33.024 23.0204 32.9686 22.989 32.919C22.9576 32.8695 22.9165 32.8268 22.8682 32.7936C22.437 32.4865 21.9365 32.2909 21.4113 32.2244V32.0848C21.4113 32.0279 21.4001 31.9716 21.3784 31.9191C21.3566 31.8665 21.3247 31.8188 21.2845 31.7786C21.2443 31.7384 21.1966 31.7065 21.144 31.6847C21.0915 31.6629 21.0352 31.6517 20.9783 31.6517C20.9214 31.6517 20.8651 31.6629 20.8126 31.6847C20.76 31.7065 20.7123 31.7384 20.6721 31.7786C20.6319 31.8188 20.6 31.8665 20.5782 31.9191C20.5564 31.9716 20.5452 32.0279 20.5452 32.0848V32.2154C19.4935 32.3673 18.7657 33.0973 18.7657 34.0326C18.7657 35.0583 19.4674 35.4714 20.5452 35.7626V37.7982C20.1316 37.7075 19.7434 37.5257 19.4088 37.2661C19.3197 37.196 19.2067 37.1636 19.094 37.1756C18.9812 37.1876 18.8776 37.2432 18.8053 37.3304L18.7956 37.3423C18.7588 37.3879 18.7316 37.4404 18.7156 37.4968C18.6997 37.5531 18.6953 37.6121 18.7027 37.6702C18.7102 37.7283 18.7293 37.7842 18.759 37.8347C18.7887 37.8852 18.8283 37.9292 18.8754 37.9639C19.3643 38.3297 19.9396 38.5625 20.5452 38.6396V38.8149C20.5452 38.8718 20.5564 38.9281 20.5782 38.9807C20.6 39.0332 20.6319 39.0809 20.6721 39.1212C20.7123 39.1614 20.76 39.1933 20.8126 39.215C20.8651 39.2368 20.9214 39.248 20.9783 39.248C21.0352 39.248 21.0915 39.2368 21.144 39.215C21.1966 39.1933 21.2443 39.1614 21.2845 39.1212C21.3247 39.0809 21.3566 39.0332 21.3784 38.9807C21.4001 38.9281 21.4113 38.8718 21.4113 38.8149V38.6589C22.6977 38.5611 23.39 37.795 23.39 36.815ZM19.7048 33.9515C19.7236 33.7279 19.8164 33.517 19.9686 33.352C20.1207 33.1871 20.3235 33.0777 20.5449 33.041V34.7845C19.9925 34.5956 19.7048 34.3769 19.7048 33.9506V33.9515ZM21.4101 37.8491V35.983C22.1115 36.1805 22.4589 36.4183 22.4589 36.907C22.4599 37.3504 22.1041 37.7686 21.411 37.8481L21.4101 37.8491Z" fill="#010815"/>
<path d="M39.281 31.0885C39.2071 31.0885 39.1339 31.103 39.0655 31.1313C38.9972 31.1596 38.9351 31.201 38.8828 31.2533C38.8305 31.3056 38.7891 31.3677 38.7608 31.436C38.7325 31.5044 38.718 31.5776 38.718 31.6515C38.7167 32.7597 38.2759 33.8222 37.4923 34.6058C36.7086 35.3893 35.6462 35.8301 34.538 35.8313H32.7131L33.669 34.8754C33.7715 34.7692 33.8283 34.627 33.8271 34.4794C33.8258 34.3317 33.7666 34.1905 33.6623 34.0861C33.5579 33.9817 33.4167 33.9224 33.2691 33.9211C33.1214 33.9198 32.9792 33.9765 32.873 34.0791L30.9567 35.9953C30.9303 36.0221 30.9065 36.0513 30.8856 36.0825C30.8776 36.0948 30.8721 36.108 30.865 36.1205C30.853 36.1394 30.8423 36.1591 30.8328 36.1794C30.8262 36.1972 30.8205 36.2153 30.8158 36.2338C30.8106 36.2505 30.8042 36.2659 30.8007 36.2843C30.7865 36.357 30.7865 36.4319 30.8007 36.5047C30.8042 36.522 30.8106 36.5368 30.8158 36.5549C30.8205 36.5734 30.8262 36.5916 30.8328 36.6095C30.8419 36.6296 30.8521 36.6492 30.8634 36.6681C30.8705 36.6807 30.8759 36.6938 30.8843 36.7061C30.905 36.7374 30.9289 36.7666 30.9554 36.7933L32.8717 38.7099C32.9779 38.8124 33.1201 38.8691 33.2678 38.8678C33.4154 38.8665 33.5566 38.8073 33.661 38.7028C33.7653 38.5984 33.8245 38.4572 33.8258 38.3096C33.827 38.1619 33.7703 38.0197 33.6677 37.9136L32.7131 36.9573H34.538C35.9445 36.9556 37.2929 36.396 38.2874 35.4013C39.2819 34.4066 39.8413 33.0581 39.8428 31.6515C39.8428 31.5024 39.7837 31.3594 39.6783 31.2539C39.573 31.1483 39.4301 31.0888 39.281 31.0885Z" fill="#010815"/>
<path d="M16.7248 25.9163C16.7988 25.9164 16.872 25.9018 16.9404 25.8736C17.0087 25.8453 17.0708 25.8038 17.1231 25.7515C17.1754 25.6992 17.2168 25.6371 17.2451 25.5688C17.2734 25.5005 17.2879 25.4272 17.2879 25.3533C17.2892 24.2452 17.7299 23.1828 18.5135 22.3992C19.2971 21.6156 20.3595 21.1748 21.4676 21.1736H23.2928L22.3369 22.1295C22.2831 22.1814 22.2402 22.2435 22.2107 22.3122C22.1812 22.3809 22.1656 22.4548 22.165 22.5295C22.1643 22.6043 22.1785 22.6784 22.2068 22.7476C22.2351 22.8168 22.2769 22.8797 22.3298 22.9326C22.3826 22.9855 22.4455 23.0273 22.5147 23.0556C22.5839 23.0839 22.658 23.0982 22.7328 23.0976C22.8075 23.0969 22.8814 23.0814 22.9501 23.0519C23.0188 23.0224 23.081 22.9795 23.1329 22.9258L25.0492 21.0095C25.0756 20.9827 25.0994 20.9535 25.1203 20.9223C25.1283 20.9104 25.1338 20.8972 25.1409 20.8847C25.1529 20.8656 25.1636 20.8459 25.1731 20.8255C25.1797 20.8078 25.1854 20.7897 25.1901 20.7714C25.1959 20.7547 25.2008 20.7378 25.2049 20.7206C25.2194 20.6478 25.2194 20.5729 25.2049 20.5002C25.2008 20.4828 25.1958 20.4658 25.1898 20.449C25.1847 20.4306 25.1787 20.4124 25.1718 20.3946C25.1624 20.3742 25.1516 20.3544 25.1396 20.3354C25.1335 20.3227 25.1267 20.3102 25.1193 20.2981C25.0986 20.2668 25.0748 20.2376 25.0482 20.2109L23.1319 18.2943C23.0257 18.1918 22.8835 18.1351 22.7359 18.1364C22.5882 18.1377 22.447 18.1969 22.3427 18.3013C22.2383 18.4058 22.1791 18.547 22.1779 18.6946C22.1766 18.8422 22.2334 18.9845 22.336 19.0906L23.2918 20.0468H21.4676C20.061 20.0487 18.7126 20.6084 17.7181 21.6033C16.7237 22.5981 16.1644 23.9467 16.1631 25.3533C16.163 25.5024 16.2221 25.6455 16.3274 25.7511C16.4328 25.8566 16.5757 25.9161 16.7248 25.9163Z" fill="#010815"/>
<path d="M21.0434 27.3691C19.795 27.3692 18.5636 27.6585 17.4457 28.2144C16.3278 28.7702 15.3539 29.5774 14.6004 30.5728C13.8468 31.5681 13.334 32.7245 13.1023 33.9512C12.8706 35.178 12.9263 36.4417 13.2649 37.6433C13.6035 38.845 14.2159 39.9518 15.054 40.8771C15.8921 41.8024 16.9332 42.5209 18.0956 42.9763C19.258 43.4318 20.51 43.6117 21.7537 43.5021C22.9973 43.3925 24.1986 42.9963 25.2633 42.3445C25.3263 42.3058 25.3811 42.2551 25.4245 42.1953C25.4679 42.1355 25.4991 42.0677 25.5163 41.9958C25.5335 41.9239 25.5364 41.8494 25.5248 41.7764C25.5132 41.7034 25.4873 41.6334 25.4487 41.5704C25.41 41.5074 25.3593 41.4526 25.2995 41.4092C25.2397 41.3658 25.1719 41.3346 25.1 41.3174C25.0281 41.3002 24.9536 41.2973 24.8806 41.3089C24.8076 41.3205 24.7376 41.3464 24.6746 41.3851C23.1979 42.2898 21.4369 42.6113 19.7358 42.2868C18.0347 41.9622 16.5158 41.0149 15.4759 39.6301C14.4361 38.2452 13.9501 36.5223 14.1129 34.7982C14.2758 33.0741 15.0758 31.4727 16.3565 30.307C17.6372 29.1413 19.3066 28.4951 21.0384 28.4948C22.7702 28.4945 24.4399 29.1401 25.721 30.3053C27.0022 31.4705 27.8028 33.0716 27.9662 34.7957C28.1297 36.5198 27.6443 38.2428 26.605 39.6281C26.5154 39.7475 26.4769 39.8977 26.498 40.0455C26.5192 40.1933 26.5981 40.3267 26.7176 40.4163C26.8371 40.5059 26.9872 40.5444 27.1351 40.5233C27.2829 40.5021 27.4163 40.4232 27.5059 40.3037C28.4069 39.1031 28.9559 37.6753 29.0912 36.1803C29.2264 34.6853 28.9427 33.1822 28.2718 31.8393C27.6009 30.4965 26.5693 29.367 25.2926 28.5775C24.0159 27.7879 22.5445 27.3695 21.0434 27.3691Z" fill="#010815"/>
<path d="M41.6302 25.1177C41.5028 25.0405 41.3499 25.017 41.2051 25.0523C41.0604 25.0877 40.9356 25.179 40.858 25.3062C40.7998 25.4028 40.74 25.4954 40.6775 25.5874C40.6341 25.6485 40.6033 25.7177 40.5869 25.7908C40.5705 25.8639 40.5689 25.9396 40.5821 26.0134C40.5954 26.0872 40.6232 26.1576 40.664 26.2205C40.7048 26.2833 40.7578 26.3374 40.8198 26.3796C40.8818 26.4217 40.9516 26.451 41.025 26.4658C41.0985 26.4806 41.1742 26.4806 41.2477 26.4658C41.3212 26.451 41.391 26.4216 41.4529 26.3795C41.5149 26.3373 41.5679 26.2832 41.6087 26.2203C41.682 26.1131 41.7525 26.0034 41.82 25.8915C41.8584 25.8282 41.884 25.758 41.8952 25.6849C41.9064 25.6117 41.9031 25.5371 41.8855 25.4652C41.8679 25.3934 41.8363 25.3257 41.7925 25.2661C41.7486 25.2064 41.6935 25.156 41.6302 25.1177Z" fill="#010815"/>
<path d="M35.0086 13.4602C33.7663 13.4605 32.5409 13.7472 31.4274 14.298C30.3139 14.8488 29.3424 15.6489 28.5883 16.636C27.8342 17.6232 27.3178 18.7709 27.0792 19.9901C26.8406 21.2092 26.8862 22.4669 27.2126 23.6656C27.539 24.8642 28.1372 25.9714 28.9609 26.9013C29.7846 27.8312 30.8116 28.5587 31.9621 29.0273C33.1126 29.4959 34.3556 29.693 35.5946 29.6033C36.8337 29.5135 38.0353 29.1394 39.1063 28.5099C39.2349 28.434 39.3281 28.3102 39.3654 28.1656C39.4028 28.021 39.3811 27.8675 39.3052 27.7388C39.2294 27.6102 39.1055 27.517 38.9609 27.4796C38.8163 27.4423 38.6628 27.464 38.5342 27.5398C37.1668 28.3423 35.5659 28.6528 33.9976 28.4197C32.4294 28.1866 30.988 27.4239 29.9132 26.2583C28.8383 25.0928 28.1945 23.5946 28.0889 22.0126C27.9833 20.4306 28.4221 18.86 29.3325 17.5619C30.2428 16.2638 31.5699 15.3162 33.0933 14.8767C34.6167 14.4371 36.2446 14.532 37.7066 15.1455C39.1685 15.7591 40.3766 16.8544 41.13 18.2495C41.8834 19.6446 42.1368 21.2554 41.8481 22.8145C41.8208 22.9613 41.853 23.113 41.9376 23.2361C42.0222 23.3592 42.1522 23.4437 42.299 23.471C42.4459 23.4982 42.5975 23.466 42.7207 23.3815C42.8438 23.2969 42.9283 23.1669 42.9555 23.02C43.1712 21.8536 43.1277 20.6539 42.828 19.5062C42.5284 18.3584 41.98 17.2905 41.2217 16.3783C40.4634 15.4661 39.5137 14.7318 38.44 14.2276C37.3663 13.7233 36.1948 13.4613 35.0086 13.4602Z" fill="#010815"/>
</svg>
