<svg width="152" height="152" viewBox="0 0 152 152" fill="none" xmlns="http://www.w3.org/2000/svg">
<g filter="url(#filter0_d_2_18678)">
<rect x="24" y="12" width="104" height="104" rx="52" fill="white" shape-rendering="crispEdges"/>
<g clip-path="url(#clip0_2_18678)">
<path d="M87.9673 26.7974V43.0479C87.9673 43.1893 88.0238 43.325 88.1245 43.4254C88.2252 43.5257 88.3619 43.5827 88.5048 43.5837H90.3164V26.2717H88.5048C88.3636 26.2728 88.2284 26.3283 88.128 26.4265C88.0276 26.5247 87.97 26.6577 87.9673 26.7974Z" fill="#122621"/>
<path d="M66.3572 26.422L47.7242 38.5221C47.5477 38.63 47.3949 38.7719 47.2747 38.9392C47.1546 39.1065 47.0695 39.2959 47.0246 39.4963C46.9925 39.6474 46.9918 39.8034 47.0225 39.9548C47.0532 40.1062 47.1146 40.2499 47.2031 40.3771C47.6545 41.0164 48.7685 41.264 49.5892 40.9089H49.6056L59.6258 36.8214C59.6258 36.7605 59.6422 36.6996 59.6525 36.6408C59.8129 35.8947 60.2284 35.2261 60.829 34.7478C61.4295 34.2694 62.1784 34.0104 62.9495 34.0145H71.6813C72.9662 34.0122 74.2105 33.5689 75.2019 32.7603C75.3716 32.6243 75.5881 32.559 75.8057 32.5782C76.0232 32.5973 76.2247 32.6994 76.3675 32.8628C76.5103 33.0262 76.5833 33.2382 76.571 33.4539C76.5587 33.6696 76.4621 33.8721 76.3016 34.0186C74.9886 35.1035 73.3284 35.6913 71.6177 35.6767H62.9495C62.5675 35.6734 62.196 35.8001 61.8972 36.0354C61.5984 36.2708 61.3905 36.6006 61.3081 36.9695C61.289 37.0699 61.2787 37.1718 61.2774 37.274C61.2763 37.2929 61.2763 37.3119 61.2774 37.3308V37.3511C61.3101 37.7676 61.5013 38.1563 61.8124 38.4388C62.1235 38.7213 62.5313 38.8766 62.9536 38.8732H71.6402C72.5556 38.891 73.4678 38.9861 74.3669 39.1574C75.1968 39.2985 76.014 39.5055 76.8104 39.7764H76.8268L76.876 39.7947C78.2732 40.3 80.4562 40.6065 82.7212 40.6065H86.2808V29.4988L70.0194 25.7665C68.9792 25.5412 67.262 25.8476 66.3572 26.422Z" fill="#122621"/>
<path d="M105.002 24.5H92.001V45.0674H105.002V24.5Z" fill="#122621"/>
<path d="M64.673 46.9184V42.0779C64.6623 41.8646 64.5691 41.6635 64.4128 41.5162C64.2564 41.369 64.0487 41.2869 63.8328 41.2869C63.6169 41.2869 63.4093 41.369 63.2529 41.5162C63.0965 41.6635 63.0033 41.8646 62.9927 42.0779V46.9184C63.0033 47.1317 63.0965 47.3328 63.2529 47.48C63.4093 47.6273 63.6169 47.7094 63.8328 47.7094C64.0487 47.7094 64.2564 47.6273 64.4128 47.48C64.5691 47.3328 64.6623 47.1317 64.673 46.9184Z" fill="#122621"/>
<path d="M61.5441 46.9183V43.671C61.5497 43.5585 61.5322 43.4459 61.4925 43.3402C61.4528 43.2345 61.3918 43.1379 61.3133 43.0563C61.2347 42.9746 61.1402 42.9096 61.0354 42.8652C60.9307 42.8208 60.8179 42.7979 60.704 42.7979C60.59 42.7979 60.4772 42.8208 60.3725 42.8652C60.2678 42.9096 60.1732 42.9746 60.0947 43.0563C60.0161 43.1379 59.9551 43.2345 59.9154 43.3402C59.8758 43.4459 59.8582 43.5585 59.8638 43.671V46.9183C59.8745 47.1316 59.9676 47.3327 60.124 47.48C60.2804 47.6272 60.4881 47.7094 60.704 47.7094C60.9199 47.7094 61.1275 47.6272 61.2839 47.48C61.4403 47.3327 61.5335 47.1316 61.5441 46.9183Z" fill="#122621"/>
<path d="M57.574 44.5803C57.3513 44.5809 57.1379 44.6688 56.9806 44.8247C56.8233 44.9807 56.7349 45.1921 56.7349 45.4124V49.502C56.7293 49.6146 56.7468 49.7271 56.7865 49.8328C56.8262 49.9385 56.8872 50.0351 56.9658 50.1167C57.0443 50.1984 57.1388 50.2634 57.2436 50.3078C57.3483 50.3523 57.4611 50.3752 57.5751 50.3752C57.689 50.3752 57.8018 50.3523 57.9065 50.3078C58.0113 50.2634 58.1058 50.1984 58.1844 50.1167C58.2629 50.0351 58.3239 49.9385 58.3636 49.8328C58.4033 49.7271 58.4208 49.6146 58.4152 49.502V45.4124C58.4152 45.1917 58.3266 44.9801 58.1688 44.824C58.0111 44.668 57.7971 44.5803 57.574 44.5803Z" fill="#122621"/>
<path d="M70.9304 49.502V45.4124C70.9304 45.1917 70.8418 44.9801 70.684 44.824C70.5263 44.668 70.3123 44.5803 70.0892 44.5803C69.8661 44.5803 69.6522 44.668 69.4944 44.824C69.3367 44.9801 69.248 45.1917 69.248 45.4124V49.502C69.248 49.7227 69.3367 49.9343 69.4944 50.0904C69.6522 50.2464 69.8661 50.3341 70.0892 50.3341C70.3123 50.3341 70.5263 50.2464 70.684 50.0904C70.8418 49.9343 70.9304 49.7227 70.9304 49.502Z" fill="#122621"/>
<path d="M66.9623 47.7483C67.0726 47.7486 67.182 47.7273 67.284 47.6857C67.3861 47.6441 67.4788 47.583 67.5569 47.5059C67.6351 47.4288 67.6971 47.3372 67.7394 47.2364C67.7817 47.1355 67.8034 47.0274 67.8034 46.9182V43.671C67.8034 43.5617 67.7817 43.4535 67.7394 43.3525C67.6971 43.2516 67.6352 43.1599 67.5571 43.0826C67.479 43.0053 67.3862 42.944 67.2842 42.9022C67.1821 42.8604 67.0727 42.8389 66.9623 42.8389C66.8518 42.8389 66.7424 42.8604 66.6404 42.9022C66.5383 42.944 66.4456 43.0053 66.3675 43.0826C66.2894 43.1599 66.2274 43.2516 66.1851 43.3525C66.1429 43.4535 66.1211 43.5617 66.1211 43.671V46.9182C66.1211 47.0274 66.1429 47.1355 66.1852 47.2364C66.2275 47.3372 66.2895 47.4288 66.3676 47.5059C66.4457 47.583 66.5385 47.6441 66.6405 47.6857C66.7426 47.7273 66.8519 47.7486 66.9623 47.7483Z" fill="#122621"/>
<path d="M57.1001 55.4506C57.0981 56.7685 57.4913 58.0573 58.2299 59.154C58.9686 60.2507 60.0195 61.1061 61.2497 61.6118C62.4799 62.1175 63.8341 62.2508 65.1409 61.995C66.4478 61.7391 67.6485 61.1055 68.5913 60.1744C69.534 59.2432 70.1763 58.0564 70.437 56.764C70.6976 55.4716 70.5649 54.1318 70.0555 52.9141C69.5462 51.6964 68.6831 50.6555 67.5756 49.9231C66.4681 49.1907 65.1658 48.7998 63.8336 48.7998C62.05 48.8014 60.3398 49.5023 59.0777 50.7489C57.8156 51.9956 57.1044 53.6863 57.1001 55.4506ZM64.1783 56.2807H63.4848C62.9861 56.282 62.5043 56.1026 62.1303 55.7762C61.7563 55.4499 61.5162 54.9993 61.4553 54.5097C61.3944 54.02 61.517 53.5253 61.7998 53.1191C62.0827 52.7128 62.5062 52.4231 62.9904 52.3048V51.7406C62.9848 51.628 63.0023 51.5155 63.042 51.4098C63.0817 51.3041 63.1427 51.2075 63.2212 51.1259C63.2998 51.0442 63.3943 50.9792 63.4991 50.9348C63.6038 50.8903 63.7166 50.8674 63.8305 50.8674C63.9445 50.8674 64.0573 50.8903 64.162 50.9348C64.2667 50.9792 64.3613 51.0442 64.4398 51.1259C64.5184 51.2075 64.5794 51.3041 64.6191 51.4098C64.6587 51.5155 64.6763 51.628 64.6707 51.7406V52.25H65.3785C65.4923 52.2445 65.6061 52.2618 65.7129 52.3011C65.8198 52.3403 65.9174 52.4007 66 52.4784C66.0825 52.5561 66.1482 52.6496 66.1931 52.7532C66.238 52.8568 66.2612 52.9684 66.2612 53.0811C66.2612 53.1939 66.238 53.3054 66.1931 53.409C66.1482 53.5126 66.0825 53.6061 66 53.6839C65.9174 53.7616 65.8198 53.8219 65.7129 53.8612C65.6061 53.9004 65.4923 53.9178 65.3785 53.9122H63.4848C63.3891 53.9122 63.2972 53.9499 63.2295 54.0168C63.1618 54.0838 63.1237 54.1747 63.1237 54.2694C63.1237 54.3642 63.1618 54.455 63.2295 54.522C63.2972 54.589 63.3891 54.6266 63.4848 54.6266H64.1783C64.6758 54.6279 65.1558 54.8088 65.528 55.1355C65.9002 55.4621 66.139 55.912 66.1995 56.4006C66.2599 56.8891 66.1379 57.3827 65.8564 57.7886C65.5749 58.1944 65.1532 58.4846 64.6707 58.6045V59.1708C64.66 59.3841 64.5668 59.5852 64.4105 59.7324C64.2541 59.8797 64.0464 59.9618 63.8305 59.9618C63.6146 59.9618 63.407 59.8797 63.2506 59.7324C63.0942 59.5852 63.001 59.3841 62.9904 59.1708V58.6654H62.2846C62.1708 58.671 62.057 58.6536 61.9502 58.6144C61.8434 58.5751 61.7457 58.5148 61.6632 58.4371C61.5806 58.3593 61.5149 58.2658 61.47 58.1622C61.4251 58.0586 61.4019 57.9471 61.4019 57.8343C61.4019 57.7216 61.4251 57.61 61.47 57.5064C61.5149 57.4028 61.5806 57.3093 61.6632 57.2316C61.7457 57.1539 61.8434 57.0935 61.9502 57.0543C62.057 57.015 62.1708 56.9977 62.2846 57.0032H64.1783C64.2257 57.0032 64.2727 56.994 64.3165 56.976C64.3603 56.9581 64.4001 56.9318 64.4336 56.8986C64.4671 56.8654 64.4937 56.826 64.5119 56.7827C64.53 56.7394 64.5394 56.6929 64.5394 56.646C64.5394 56.5991 64.53 56.5527 64.5119 56.5093C64.4937 56.466 64.4671 56.4266 64.4336 56.3934C64.4001 56.3603 64.3603 56.334 64.3165 56.316C64.2727 56.2981 64.2257 56.2888 64.1783 56.2888V56.2807Z" fill="#122621"/>
<path d="M72.4693 68.6467H55.1924V69.625H72.4693V68.6467Z" fill="#122621"/>
<path d="M53.1035 65.1132V66.331C53.1046 66.5047 53.1751 66.6709 53.2997 66.7933C53.4242 66.9158 53.5927 66.9845 53.7682 66.9845H73.8969C74.0722 66.9839 74.2401 66.915 74.3642 66.7926C74.4883 66.6702 74.5585 66.5043 74.5596 66.331V65.1132C74.5591 64.9397 74.489 64.7735 74.3648 64.651C74.2406 64.5285 74.0723 64.4597 73.8969 64.4597H53.7682C53.5927 64.4597 53.4242 64.5284 53.2997 64.6509C53.1751 64.7733 53.1046 64.9395 53.1035 65.1132Z" fill="#122621"/>
<path d="M74.2458 92.0615C74.2458 91.9861 74.2156 91.9138 74.1617 91.8606C74.1078 91.8073 74.0348 91.7773 73.9586 91.7773H64.9601C64.8839 91.7773 64.8108 91.8073 64.757 91.8606C64.7031 91.9138 64.6729 91.9861 64.6729 92.0615C64.6729 92.1368 64.7031 92.2091 64.757 92.2624C64.8108 92.3157 64.8839 92.3456 64.9601 92.3456H73.9586C74.0348 92.3456 74.1078 92.3157 74.1617 92.2624C74.2156 92.2091 74.2458 92.1368 74.2458 92.0615Z" fill="#122621"/>
<path d="M73.9606 102.932H64.9601C64.8839 102.932 64.8108 102.962 64.757 103.015C64.7031 103.068 64.6729 103.14 64.6729 103.216C64.6729 103.291 64.7031 103.363 64.757 103.417C64.8108 103.47 64.8839 103.5 64.9601 103.5H73.9586C74.0348 103.5 74.1078 103.47 74.1617 103.417C74.2156 103.363 74.2458 103.291 74.2458 103.216C74.2458 103.14 74.2156 103.068 74.1617 103.015C74.1078 102.962 74.0348 102.932 73.9586 102.932H73.9606Z" fill="#122621"/>
<path d="M67.2129 101.268H76.2135C76.2897 101.268 76.3627 101.238 76.4166 101.184C76.4705 101.131 76.5007 101.059 76.5007 100.983C76.5007 100.908 76.4705 100.836 76.4166 100.782C76.3627 100.729 76.2897 100.699 76.2135 100.699H67.2129C67.1371 100.7 67.0646 100.73 67.0111 100.783C66.9577 100.836 66.9277 100.908 66.9277 100.983C66.9275 101.021 66.9346 101.057 66.9489 101.092C66.9631 101.126 66.984 101.158 67.0105 101.184C67.037 101.211 67.0686 101.232 67.1033 101.246C67.138 101.26 67.1753 101.268 67.2129 101.268Z" fill="#122621"/>
<path d="M61.2998 98.7528C61.3003 98.8284 61.3311 98.9006 61.3853 98.9539C61.4394 99.0071 61.5127 99.037 61.5891 99.037H70.5876C70.6593 99.0309 70.7262 98.9985 70.7749 98.9461C70.8236 98.8936 70.8506 98.825 70.8506 98.7538C70.8506 98.6826 70.8236 98.614 70.7749 98.5616C70.7262 98.5092 70.6593 98.4767 70.5876 98.4707H61.5891C61.5514 98.4704 61.514 98.4775 61.479 98.4916C61.4441 98.5056 61.4122 98.5263 61.3854 98.5525C61.3585 98.5787 61.3371 98.6099 61.3225 98.6442C61.3078 98.6786 61.3001 98.7155 61.2998 98.7528Z" fill="#122621"/>
<path d="M62.8467 96.5223C62.8467 96.5974 62.8767 96.6693 62.9301 96.7225C62.9835 96.7758 63.056 96.8059 63.1319 96.8065H72.1304C72.2066 96.8065 72.2796 96.7765 72.3335 96.7233C72.3873 96.67 72.4176 96.5977 72.4176 96.5223C72.4176 96.4482 72.3881 96.3771 72.3355 96.3243C72.2829 96.2715 72.2114 96.2413 72.1365 96.2402H63.1339C63.0581 96.2402 62.9853 96.2699 62.9315 96.3227C62.8777 96.3756 62.8472 96.4473 62.8467 96.5223Z" fill="#122621"/>
<path d="M67.2109 94.5762H76.2135C76.2857 94.5701 76.3531 94.5375 76.4021 94.4847C76.4512 94.4319 76.4784 94.3627 76.4784 94.291C76.4784 94.2193 76.4512 94.1502 76.4021 94.0974C76.3531 94.0446 76.2857 94.0119 76.2135 94.0059H67.215C67.1388 94.0059 67.0657 94.0358 67.0119 94.0891C66.958 94.1424 66.9277 94.2146 66.9277 94.29C66.9277 94.3654 66.958 94.4376 67.0119 94.4909C67.0657 94.5442 67.1388 94.5741 67.215 94.5741L67.2109 94.5762Z" fill="#122621"/>
<path d="M75.6103 71.2871H52.0554C50.9491 71.2876 49.8883 71.7225 49.1059 72.4961C48.3235 73.2697 47.8834 74.3189 47.8823 75.4132V99.374C47.8834 100.468 48.3232 101.517 49.1052 102.29C49.8872 103.064 50.9474 103.499 52.0533 103.5H63.0132C62.9985 103.406 62.9909 103.311 62.9906 103.216C62.9912 102.7 63.1986 102.205 63.5674 101.84C63.9362 101.474 64.4363 101.269 64.9582 101.268H65.268C65.2542 101.174 65.2466 101.08 65.2454 100.985C65.2466 100.89 65.2542 100.795 65.268 100.701H61.5894C61.1021 100.7 60.6326 100.521 60.2714 100.197C59.9102 99.8738 59.6831 99.4293 59.6338 98.9498C59.5846 98.4703 59.7168 97.9898 60.0048 97.6011C60.2929 97.2123 60.7163 96.943 61.1934 96.8452C61.1753 96.7385 61.1657 96.6306 61.1647 96.5225C61.1658 96.0062 61.3737 95.5115 61.7429 95.1467C62.1121 94.7818 62.6124 94.5767 63.1343 94.5761H65.27C65.2561 94.482 65.2486 94.3871 65.2474 94.292C65.2488 94.1969 65.2563 94.102 65.27 94.0079H64.9602C64.4384 94.0079 63.9379 93.8028 63.569 93.4378C63.2 93.0728 62.9927 92.5777 62.9927 92.0615C62.9927 91.5453 63.2 91.0503 63.569 90.6853C63.9379 90.3203 64.4384 90.1152 64.9602 90.1152H73.9587C74.4806 90.1157 74.9809 90.3209 75.3501 90.6857C75.7193 91.0506 75.9272 91.5453 75.9283 92.0615C75.9274 92.1567 75.9192 92.2517 75.9037 92.3457H76.2135C76.7246 92.362 77.2092 92.5743 77.5649 92.9377C77.9206 93.3011 78.1195 93.7872 78.1195 94.293C78.1195 94.7989 77.9206 95.2849 77.5649 95.6483C77.2092 96.0117 76.7246 96.224 76.2135 96.2404H74.0757C74.0912 96.3336 74.0994 96.4279 74.1003 96.5225C74.0997 96.971 73.9429 97.4056 73.6563 97.753C73.3697 98.1005 72.9707 98.3397 72.5267 98.4302C72.5445 98.5369 72.5541 98.6448 72.5554 98.7529C72.5545 98.8481 72.5463 98.9431 72.5308 99.0371H76.2135C76.7246 99.0534 77.2092 99.2657 77.5649 99.6291C77.9206 99.9925 78.1195 100.479 78.1195 100.984C78.1195 101.49 77.9206 101.976 77.5649 102.34C77.2092 102.703 76.7246 102.915 76.2135 102.932H75.9037C75.9193 103.026 75.9275 103.121 75.9283 103.216C75.9271 103.307 75.9195 103.398 75.9057 103.488C76.9573 103.413 77.9413 102.947 78.6598 102.184C79.3784 101.421 79.7783 100.417 79.7792 99.374V75.4132C79.7782 74.3196 79.3387 73.271 78.5571 72.4975C77.7756 71.724 76.7158 71.2887 75.6103 71.2871ZM59.7429 96.5854L51.8543 100.868C51.564 101.024 51.239 101.106 50.9085 101.107C50.4714 101.108 50.0466 100.964 49.7011 100.699C49.3556 100.435 49.1091 100.064 49.0004 99.6447C48.8918 99.226 48.9272 98.7833 49.101 98.3866C49.2749 97.9899 49.5773 97.6618 49.9606 97.454L57.8492 93.1717C58.3068 92.9233 58.8455 92.8649 59.3466 93.0093C59.8477 93.1538 60.2704 93.4892 60.5215 93.9419C60.7726 94.3946 60.8316 94.9274 60.6856 95.4231C60.5396 95.9189 60.2005 96.337 59.7429 96.5854ZM61.1298 87.9436C61.0241 88.177 60.873 88.3875 60.6851 88.5632C60.4971 88.7388 60.276 88.876 60.0344 88.9671C59.7928 89.0581 59.5354 89.1011 59.277 89.0937C59.0186 89.0863 58.7642 89.0286 58.5283 88.9239L50.3217 85.2849C49.9115 85.1017 49.5771 84.7851 49.3741 84.3878C49.1711 83.9904 49.1118 83.5363 49.2061 83.101C49.3003 82.6657 49.5425 82.2754 49.8921 81.9951C50.2418 81.7149 50.678 81.5616 51.128 81.5607C51.4047 81.5598 51.6783 81.6179 51.9302 81.7311L60.1368 85.3701C60.613 85.5817 60.9849 85.9714 61.1711 86.4538C61.3572 86.9362 61.3424 87.472 61.1298 87.9436ZM66.0866 86.1596C64.8076 86.1592 63.5576 85.7837 62.4944 85.0805C61.4312 84.3773 60.6026 83.3781 60.1135 82.2092C59.6244 81.0402 59.4966 79.754 59.7463 78.5132C59.9961 77.2724 60.6122 76.1328 61.5166 75.2383C62.4211 74.3439 63.5734 73.7348 64.8278 73.4881C66.0821 73.2415 67.3823 73.3683 68.5638 73.8525C69.7454 74.3367 70.7552 75.1567 71.4657 76.2086C72.1762 77.2606 72.5554 78.4973 72.5554 79.7625C72.5532 81.4588 71.8709 83.085 70.6582 84.2843C69.4455 85.4836 67.8014 86.158 66.0866 86.1596Z" fill="#122621"/>
<path d="M66.0863 75.0276C65.1396 75.0276 64.2142 75.3053 63.4271 75.8256C62.6399 76.3458 62.0264 77.0854 61.6642 77.9505C61.3019 78.8157 61.2071 79.7678 61.3918 80.6863C61.5765 81.6047 62.0323 82.4484 62.7017 83.1106C63.3711 83.7728 64.224 84.2238 65.1525 84.4065C66.081 84.5892 67.0434 84.4954 67.918 84.137C68.7926 83.7786 69.5402 83.1718 70.0661 82.3931C70.5921 81.6144 70.8728 80.699 70.8728 79.7625C70.8712 78.5072 70.3663 77.3038 69.4691 76.4162C68.5718 75.5286 67.3552 75.0292 66.0863 75.0276ZM65.7457 78.9304H66.4289C66.922 78.9295 67.3984 79.107 67.7684 79.4295C68.1384 79.7519 68.3764 80.197 68.4377 80.681C68.499 81.165 68.3793 81.6545 68.1011 82.0573C67.823 82.46 67.4055 82.7483 66.9275 82.8677V83.4137C66.9331 83.5263 66.9155 83.6388 66.8759 83.7445C66.8362 83.8502 66.7752 83.9468 66.6966 84.0284C66.6181 84.1101 66.5235 84.1751 66.4188 84.2195C66.3141 84.264 66.2013 84.2869 66.0873 84.2869C65.9734 84.2869 65.8606 84.264 65.7558 84.2195C65.6511 84.1751 65.5566 84.1101 65.478 84.0284C65.3994 83.9468 65.3385 83.8502 65.2988 83.7445C65.2591 83.6388 65.2415 83.5263 65.2472 83.4137V82.9327H64.564C64.3409 82.9327 64.1269 82.845 63.9692 82.6889C63.8114 82.5329 63.7228 82.3212 63.7228 82.1006C63.7228 81.8799 63.8114 81.6682 63.9692 81.5122C64.1269 81.3561 64.3409 81.2684 64.564 81.2684H66.4289C66.5192 81.2684 66.6059 81.2329 66.6697 81.1698C66.7336 81.1066 66.7695 81.0209 66.7695 80.9315C66.7695 80.8422 66.7336 80.7565 66.6697 80.6933C66.6059 80.6301 66.5192 80.5946 66.4289 80.5946H65.7457C65.2535 80.5935 64.7787 80.4149 64.41 80.0923C64.0414 79.7697 63.8043 79.3252 63.7432 78.8421C63.682 78.359 63.801 77.8704 64.0779 77.4678C64.3547 77.0653 64.7705 76.7764 65.2472 76.6553V76.1093C65.2415 75.9967 65.2591 75.8842 65.2988 75.7785C65.3385 75.6728 65.3994 75.5762 65.478 75.4946C65.5566 75.4129 65.6511 75.3479 65.7558 75.3035C65.8606 75.2591 65.9734 75.2361 66.0873 75.2361C66.2013 75.2361 66.3141 75.2591 66.4188 75.3035C66.5235 75.3479 66.6181 75.4129 66.6966 75.4946C66.7752 75.5762 66.8362 75.6728 66.8759 75.7785C66.9155 75.8842 66.9331 75.9967 66.9275 76.1093V76.5903H67.6086C67.8317 76.5903 68.0457 76.678 68.2034 76.8341C68.3612 76.9901 68.4498 77.2018 68.4498 77.4225C68.4498 77.6431 68.3612 77.8548 68.2034 78.0108C68.0457 78.1669 67.8317 78.2546 67.6086 78.2546H65.7457C65.6597 78.2612 65.5794 78.2996 65.5208 78.3623C65.4621 78.4249 65.4296 78.5071 65.4296 78.5925C65.4296 78.6778 65.4621 78.7601 65.5208 78.8227C65.5794 78.8853 65.6597 78.9238 65.7457 78.9304Z" fill="#122621"/>
<path d="M59.4495 86.8883L51.2429 83.2493C51.2064 83.2319 51.1664 83.2229 51.1259 83.2229C51.0705 83.2234 51.0163 83.2394 50.9698 83.2693C50.9233 83.2991 50.8864 83.3415 50.8633 83.3914C50.8485 83.4257 50.8408 83.4626 50.8408 83.4999C50.8408 83.5373 50.8485 83.5742 50.8633 83.6085C50.8765 83.6434 50.8965 83.6753 50.9222 83.7025C50.9479 83.7296 50.9788 83.7515 51.0131 83.7668L59.2197 87.4058C59.2544 87.4241 59.2926 87.4352 59.3319 87.4383C59.3712 87.4414 59.4107 87.4365 59.448 87.4239C59.4852 87.4112 59.5195 87.3912 59.5486 87.3649C59.5777 87.3386 59.601 87.3066 59.6171 87.2711C59.6331 87.2355 59.6416 87.197 59.6421 87.158C59.6425 87.119 59.6348 87.0804 59.6194 87.0445C59.6041 87.0086 59.5814 86.9762 59.5529 86.9493C59.5244 86.9224 59.4906 86.9017 59.4536 86.8883H59.4495Z" fill="#122621"/>
<path d="M58.7948 94.5943C58.7467 94.5937 58.6993 94.6056 58.6573 94.6288L50.7688 98.9111C50.7355 98.929 50.7062 98.9533 50.6826 98.9826C50.659 99.0118 50.6415 99.0455 50.6313 99.0816C50.6205 99.1172 50.6172 99.1547 50.6214 99.1916C50.6256 99.2286 50.6374 99.2643 50.6559 99.2967C50.681 99.3413 50.7175 99.3785 50.7619 99.4045C50.8062 99.4305 50.8567 99.4445 50.9083 99.4449C50.9558 99.444 51.0023 99.4315 51.0437 99.4083L58.9343 95.128C58.9906 95.0978 59.035 95.0498 59.0606 94.9916C59.0861 94.9335 59.0913 94.8686 59.0752 94.8073C59.0592 94.7459 59.0229 94.6916 58.9721 94.653C58.9213 94.6144 58.8589 94.5937 58.7948 94.5943Z" fill="#122621"/>
</g>
</g>
<defs>
<filter id="filter0_d_2_18678" x="0" y="0" width="152" height="152" filterUnits="userSpaceOnUse" color-interpolation-filters="sRGB">
<feFlood flood-opacity="0" result="BackgroundImageFix"/>
<feColorMatrix in="SourceAlpha" type="matrix" values="0 0 0 0 0 0 0 0 0 0 0 0 0 0 0 0 0 0 127 0" result="hardAlpha"/>
<feOffset dy="12"/>
<feGaussianBlur stdDeviation="12"/>
<feComposite in2="hardAlpha" operator="out"/>
<feColorMatrix type="matrix" values="0 0 0 0 0.0255208 0 0 0 0 0.291667 0 0 0 0 0.211823 0 0 0 0.08 0"/>
<feBlend mode="normal" in2="BackgroundImageFix" result="effect1_dropShadow_2_18678"/>
<feBlend mode="normal" in="SourceGraphic" in2="effect1_dropShadow_2_18678" result="shape"/>
</filter>
<clipPath id="clip0_2_18678">
<rect width="58" height="79" fill="white" transform="translate(47 24.5)"/>
</clipPath>
</defs>
</svg>
