<svg width="32" height="32" viewBox="0 0 32 32" fill="none" xmlns="http://www.w3.org/2000/svg">
<rect x="0.666663" y="0.666663" width="30.6666" height="30.6666" rx="15.3333" stroke="#00D094" stroke-opacity="0.08" stroke-width="1.33333"/>
<g clip-path="url(#clip0_2037_48)">
<path d="M10 11.983C10 11.6014 10.1351 11.2866 10.4054 11.0386C10.6757 10.7905 11.027 10.6665 11.4595 10.6665C11.8842 10.6665 12.2278 10.7886 12.4904 11.0328C12.7606 11.2847 12.8958 11.6128 12.8958 12.0173C12.8958 12.3837 12.7645 12.6889 12.5019 12.9332C12.2317 13.185 11.8765 13.3109 11.4363 13.3109H11.4247C11 13.3109 10.6564 13.185 10.3938 12.9332C10.1313 12.6813 10 12.3646 10 11.983ZM10.1506 21.9998V14.3527H12.722V21.9998H10.1506ZM14.1467 21.9998H16.7182V17.7298C16.7182 17.4627 16.7491 17.2566 16.8108 17.1116C16.9189 16.8521 17.083 16.6327 17.3031 16.4534C17.5232 16.274 17.7992 16.1843 18.1313 16.1843C18.9962 16.1843 19.4286 16.7606 19.4286 17.913V21.9998H22V17.6153C22 16.4858 21.7298 15.6291 21.1892 15.0453C20.6487 14.4615 19.9344 14.1695 19.0463 14.1695C18.0502 14.1695 17.2741 14.5931 16.7182 15.4402V15.4631H16.7066L16.7182 15.4402V14.3527H14.1467C14.1622 14.5969 14.1699 15.3563 14.1699 16.6308C14.1699 17.9053 14.1622 19.695 14.1467 21.9998Z" fill="white"/>
</g>
<defs>
<clipPath id="clip0_2037_48">
<rect width="12" height="11.3334" fill="white" transform="translate(10 10.6665)"/>
</clipPath>
</defs>
</svg>
