<svg width="32" height="32" viewBox="0 0 32 32" fill="none" xmlns="http://www.w3.org/2000/svg">
<rect x="0.666663" y="0.666663" width="30.6666" height="30.6666" rx="15.3333" stroke="#00D094" stroke-opacity="0.08" stroke-width="1.33333"/>
<path d="M19.5602 11.6402C19.402 11.6402 19.2473 11.6871 19.1157 11.775C18.9842 11.8629 18.8816 11.9878 18.8211 12.134C18.7605 12.2802 18.7447 12.4411 18.7756 12.5962C18.8064 12.7514 18.8826 12.894 18.9945 13.0059C19.1064 13.1177 19.2489 13.1939 19.4041 13.2248C19.5593 13.2557 19.7201 13.2398 19.8663 13.1793C20.0125 13.1187 20.1375 13.0162 20.2254 12.8846C20.3133 12.7531 20.3602 12.5984 20.3602 12.4402C20.3602 12.228 20.2759 12.0245 20.1259 11.8745C19.9758 11.7245 19.7724 11.6402 19.5602 11.6402ZM22.6269 13.2535C22.6139 12.7004 22.5103 12.1531 22.3202 11.6335C22.1507 11.1889 21.8868 10.7864 21.5469 10.4535C21.2167 10.1118 20.8132 9.84961 20.3668 9.68683C19.8486 9.49094 19.3007 9.38497 18.7468 9.3735C18.0402 9.3335 17.8135 9.3335 16.0002 9.3335C14.1868 9.3335 13.9602 9.3335 13.2535 9.3735C12.6996 9.38497 12.1517 9.49094 11.6335 9.68683C11.188 9.85126 10.7848 10.1132 10.4535 10.4535C10.1118 10.7836 9.84961 11.1871 9.68683 11.6335C9.49094 12.1517 9.38497 12.6996 9.3735 13.2535C9.3335 13.9602 9.3335 14.1868 9.3335 16.0002C9.3335 17.8135 9.3335 18.0402 9.3735 18.7468C9.38497 19.3007 9.49094 19.8486 9.68683 20.3668C9.84961 20.8132 10.1118 21.2167 10.4535 21.5469C10.7848 21.8871 11.188 22.1491 11.6335 22.3135C12.1517 22.5094 12.6996 22.6154 13.2535 22.6269C13.9602 22.6669 14.1868 22.6669 16.0002 22.6669C17.8135 22.6669 18.0402 22.6669 18.7468 22.6269C19.3007 22.6154 19.8486 22.5094 20.3668 22.3135C20.8132 22.1507 21.2167 21.8886 21.5469 21.5469C21.8883 21.2152 22.1524 20.8123 22.3202 20.3668C22.5103 19.8472 22.6139 19.3 22.6269 18.7468C22.6269 18.0402 22.6669 17.8135 22.6669 16.0002C22.6669 14.1868 22.6669 13.9602 22.6269 13.2535ZM21.4269 18.6668C21.422 19.09 21.3454 19.5093 21.2002 19.9068C21.0937 20.197 20.9228 20.4591 20.7002 20.6735C20.4839 20.8939 20.2223 21.0645 19.9335 21.1735C19.536 21.3187 19.1167 21.3953 18.6935 21.4002C18.0268 21.4335 17.7802 21.4402 16.0268 21.4402C14.2735 21.4402 14.0268 21.4402 13.3602 21.4002C12.9208 21.4084 12.4832 21.3408 12.0668 21.2002C11.7907 21.0856 11.5411 20.9154 11.3335 20.7002C11.1122 20.486 10.9434 20.2236 10.8402 19.9335C10.6774 19.5303 10.5871 19.1015 10.5735 18.6668C10.5735 18.0002 10.5335 17.7535 10.5335 16.0002C10.5335 14.2468 10.5335 14.0002 10.5735 13.3335C10.5765 12.9009 10.6555 12.4721 10.8068 12.0668C10.9242 11.7854 11.1043 11.5346 11.3335 11.3335C11.536 11.1043 11.7864 10.9222 12.0668 10.8002C12.4732 10.6535 12.9015 10.5769 13.3335 10.5735C14.0002 10.5735 14.2468 10.5335 16.0002 10.5335C17.7535 10.5335 18.0002 10.5335 18.6668 10.5735C19.09 10.5784 19.5093 10.655 19.9068 10.8002C20.2098 10.9126 20.4817 11.0954 20.7002 11.3335C20.9187 11.5383 21.0894 11.7887 21.2002 12.0668C21.3484 12.4728 21.425 12.9014 21.4269 13.3335C21.4602 14.0002 21.4669 14.2468 21.4669 16.0002C21.4669 17.7535 21.4602 18.0002 21.4269 18.6668ZM16.0002 12.5802C15.324 12.5815 14.6635 12.7832 14.1019 13.1598C13.5404 13.5364 13.1031 14.071 12.8453 14.696C12.5874 15.321 12.5207 16.0085 12.6534 16.6715C12.7861 17.3344 13.1123 17.9432 13.5909 18.4208C14.0694 18.8985 14.6788 19.2235 15.3421 19.3549C16.0053 19.4864 16.6926 19.4183 17.3172 19.1592C17.9417 18.9002 18.4754 18.4618 18.8509 17.8995C19.2264 17.3373 19.4268 16.6763 19.4268 16.0002C19.4277 15.5502 19.3396 15.1046 19.1677 14.6888C18.9957 14.273 18.7432 13.8954 18.4248 13.5775C18.1063 13.2597 17.7281 13.008 17.312 12.8368C16.8959 12.6656 16.4501 12.5784 16.0002 12.5802ZM16.0002 18.2202C15.5611 18.2202 15.1319 18.09 14.7668 17.846C14.4017 17.6021 14.1172 17.2554 13.9492 16.8497C13.7811 16.4441 13.7372 15.9977 13.8228 15.5671C13.9085 15.1364 14.1199 14.7409 14.4304 14.4304C14.7409 14.1199 15.1364 13.9085 15.5671 13.8228C15.9977 13.7372 16.4441 13.7811 16.8497 13.9492C17.2554 14.1172 17.6021 14.4017 17.846 14.7668C18.09 15.1319 18.2202 15.5611 18.2202 16.0002C18.2202 16.2917 18.1628 16.5804 18.0512 16.8497C17.9396 17.1191 17.7761 17.3638 17.57 17.57C17.3638 17.7761 17.1191 17.9396 16.8497 18.0512C16.5804 18.1628 16.2917 18.2202 16.0002 18.2202Z" fill="white"/>
</svg>
