<svg width="152" height="152" viewBox="0 0 152 152" fill="none" xmlns="http://www.w3.org/2000/svg">
<g filter="url(#filter0_d_2_18676)">
<rect x="24" y="12" width="104" height="104" rx="52" fill="white" shape-rendering="crispEdges"/>
<g clip-path="url(#clip0_2_18676)">
<path d="M85.6732 64.786C85.7056 64.6409 85.7004 64.4901 85.6581 64.3476C85.6158 64.2051 85.5378 64.0757 85.4314 63.9715L81.9147 60.5233C81.7874 60.3986 81.625 60.3155 81.4491 60.285C81.2733 60.2544 81.0922 60.278 80.9301 60.3525L68.2063 66.2222C68.0779 66.2819 67.9659 66.3715 67.8798 66.4836C67.7937 66.5957 67.736 66.7268 67.7118 66.8659C67.6871 67.0054 67.6968 67.1489 67.7401 67.2839C67.7834 67.4189 67.8589 67.5414 67.9601 67.6409L71.3229 70.9381L56.9265 79.8488C56.7427 79.9641 56.6081 80.1431 56.5489 80.3513C56.4897 80.5595 56.51 80.7822 56.6058 80.9764C56.7017 81.1706 56.8663 81.3225 57.068 81.403C57.2696 81.4834 57.4941 81.4867 57.698 81.412L79.5036 73.3289C79.6284 73.2823 79.7409 73.2081 79.8326 73.1118C79.9244 73.0155 79.9929 72.8998 80.0332 72.7732C80.0734 72.6467 80.0842 72.5127 80.0648 72.3814C80.0454 72.2501 79.9963 72.1249 79.9212 72.0153L77.2727 68.1795L85.1083 65.4253C85.2493 65.3754 85.3752 65.2905 85.474 65.1786C85.5729 65.0668 85.6414 64.9316 85.6732 64.786Z" fill="#00150F"/>
<path d="M88.1895 78.9643L95.2338 85.9812L100.137 81.0968L93.093 74.0798L88.1895 78.9643Z" fill="#00150F"/>
<path d="M69.5492 50.6273L62.5027 43.6082L57.5991 48.4948L64.6435 55.5117L69.5492 50.6273Z" fill="#00150F"/>
<path d="M75.3716 91.7305C72.2486 94.8408 68.0131 96.5879 63.5969 96.5875C59.1807 96.5871 54.9455 94.8392 51.823 91.7284C48.7006 88.6175 46.9467 84.3985 46.9471 79.9995C46.9475 75.6004 48.7022 71.3818 51.8252 68.2715L63.3995 56.7423L56.3662 49.7253L44.7765 61.2655C39.7864 66.2371 36.9833 72.9796 36.9839 80.0099C36.9845 87.0402 39.7888 93.7822 44.7798 98.7529C49.7708 103.724 56.5397 106.516 63.5975 106.515C70.6552 106.515 77.4236 103.721 82.4138 98.7497L93.9903 87.2205L86.9459 80.2013L75.3716 91.7305Z" fill="#00150F"/>
<path d="M96.4781 30.5159C96.5597 30.5973 96.6567 30.6619 96.7634 30.706C96.8701 30.7501 96.9845 30.7728 97.1001 30.7728C97.2156 30.7728 97.33 30.7501 97.4367 30.706C97.5435 30.6619 97.6404 30.5973 97.7221 30.5159L102.47 25.7869C102.628 25.6214 102.715 25.4011 102.712 25.1727C102.709 24.9443 102.617 24.7261 102.455 24.5644C102.293 24.4028 102.074 24.3106 101.845 24.3075C101.616 24.3043 101.394 24.3905 101.228 24.5477L96.4781 29.2767C96.3963 29.3581 96.3315 29.4546 96.2872 29.561C96.243 29.6673 96.2202 29.7812 96.2202 29.8963C96.2202 30.0114 96.243 30.1254 96.2872 30.2317C96.3315 30.338 96.3963 30.4346 96.4781 30.5159Z" fill="#00150F"/>
<path d="M93.4428 27.4901C93.5244 27.5715 93.6214 27.6361 93.7281 27.6802C93.8349 27.7242 93.9493 27.7469 94.0648 27.7469C94.1803 27.7469 94.2947 27.7242 94.4015 27.6802C94.5082 27.6361 94.6052 27.5715 94.6868 27.4901L97.8628 24.3264C98.0209 24.161 98.1078 23.9406 98.1051 23.7122C98.1024 23.4839 98.0102 23.2656 97.8482 23.104C97.6862 22.9423 97.4673 22.8501 97.238 22.847C97.0088 22.8439 96.7873 22.9301 96.621 23.0872L93.4428 26.2531C93.2784 26.4172 93.186 26.6397 93.186 26.8716C93.186 27.1035 93.2784 27.3259 93.4428 27.4901Z" fill="#00150F"/>
<path d="M88.491 27.2492C88.6066 27.249 88.7211 27.2261 88.8278 27.1817C88.9345 27.1374 89.0314 27.0725 89.113 26.9908L93.1308 22.9931C93.2823 22.8265 93.3637 22.6082 93.3582 22.3835C93.3526 22.1588 93.2605 21.9448 93.1009 21.7858C92.9413 21.6268 92.7265 21.5351 92.5009 21.5296C92.2753 21.524 92.0562 21.6051 91.8889 21.7561L87.8711 25.7539C87.7482 25.8762 87.6644 26.0321 87.6303 26.2019C87.5963 26.3716 87.6135 26.5476 87.6798 26.7077C87.7461 26.8677 87.8586 27.0045 88.003 27.1009C88.1473 27.1973 88.3172 27.2489 88.491 27.2492Z" fill="#00150F"/>
<path d="M100.017 37.8525C99.8652 38.0191 99.7838 38.2373 99.7893 38.4621C99.7949 38.6868 99.887 38.9008 100.047 39.0598C100.206 39.2187 100.421 39.3105 100.647 39.316C100.872 39.3215 101.091 39.2404 101.259 39.0895L105.272 35.0917C105.423 34.9251 105.505 34.7069 105.499 34.4821C105.494 34.2574 105.402 34.0434 105.242 33.8844C105.083 33.7255 104.868 33.6337 104.642 33.6282C104.416 33.6227 104.197 33.7038 104.03 33.8547L100.017 37.8525Z" fill="#00150F"/>
<path d="M99.5157 32.3025C99.3579 32.4682 99.2714 32.6887 99.2745 32.9171C99.2776 33.1454 99.3702 33.3635 99.5325 33.5249C99.6947 33.6862 99.9139 33.7781 100.143 33.7808C100.372 33.7835 100.594 33.6969 100.76 33.5395L103.936 30.3736C104.021 30.293 104.089 30.1963 104.136 30.0892C104.182 29.982 104.207 29.8666 104.209 29.7497C104.21 29.6328 104.188 29.5168 104.144 29.4086C104.099 29.3004 104.034 29.2021 103.951 29.1195C103.868 29.0369 103.769 28.9717 103.66 28.9278C103.551 28.8838 103.435 28.862 103.318 28.8636C103.2 28.8652 103.084 28.8902 102.977 28.9371C102.869 28.984 102.772 29.0518 102.692 29.1366L99.5157 32.3025Z" fill="#00150F"/>
<path d="M88.7346 47.166C90.5083 47.166 92.2422 46.6421 93.717 45.6605C95.1917 44.6788 96.3411 43.2836 97.0198 41.6513C97.6984 40.0189 97.8759 38.2227 97.5297 36.4899C97.1835 34.7571 96.3292 33.1655 95.0749 31.9163C93.8205 30.6672 92.2224 29.8166 90.4828 29.4722C88.7431 29.1277 86.9399 29.3049 85.3014 29.9814C83.6628 30.6578 82.2624 31.8031 81.2773 33.2723C80.2922 34.7415 79.7667 36.4688 79.7671 38.2356C79.77 40.6036 80.7158 42.8737 82.397 44.5479C84.0781 46.2221 86.3574 47.1637 88.7346 47.166ZM84.2794 38.4414C84.4442 38.2776 84.6675 38.1856 84.9003 38.1856C85.1331 38.1856 85.3564 38.2776 85.5213 38.4414L87.3587 40.2717C87.5045 40.4154 87.7015 40.4956 87.9066 40.4945C88.1117 40.4935 88.3079 40.4114 88.4522 40.2662C88.5965 40.1211 88.6769 39.9248 88.6759 39.7205C88.6749 39.5162 88.5924 39.3207 88.4467 39.177L87.7763 38.5071C87.327 38.0602 87.063 37.4612 87.0371 36.8292C87.0113 36.1973 87.2253 35.5788 87.6367 35.097C88.048 34.6152 88.6265 34.3054 89.2568 34.2294C89.8872 34.1533 90.5231 34.3166 91.0381 34.6866L91.7524 33.9773C91.9185 33.8198 92.1397 33.7332 92.369 33.7359C92.5982 33.7387 92.8174 33.8305 92.9796 33.9918C93.1419 34.1532 93.2344 34.3713 93.2376 34.5996C93.2407 34.828 93.1542 35.0486 92.9964 35.2143L92.3085 35.8995L93.1876 36.7753C93.3526 36.9396 93.4453 37.1625 93.4453 37.3949C93.4453 37.6273 93.3526 37.8501 93.1876 38.0145C93.0227 38.1788 92.7989 38.2711 92.5656 38.2711C92.3323 38.2711 92.1086 38.1788 91.9436 38.0145L90.1061 36.1842C90.0347 36.1111 89.9492 36.053 89.8548 36.0133C89.7605 35.9737 89.6591 35.9532 89.5566 35.9532C89.4542 35.9532 89.3528 35.9737 89.2585 36.0133C89.1641 36.053 89.0786 36.1111 89.0072 36.1842C88.9363 36.2552 88.8803 36.3396 88.8426 36.4325C88.8048 36.5253 88.7861 36.6248 88.7874 36.7249C88.7858 36.9277 88.8649 37.1229 89.0072 37.2679L89.6819 37.9356C89.976 38.2286 90.1929 38.5892 90.3136 38.9856C90.4342 39.382 90.4548 39.802 90.3735 40.2082C90.2921 40.6145 90.1115 40.9944 89.8475 41.3145C89.5834 41.6345 89.2442 41.8847 88.8599 42.0429C88.4618 42.2064 88.0285 42.266 87.6008 42.2162C87.1732 42.1664 86.7653 42.0088 86.4158 41.7583L85.7015 42.4676C85.537 42.6313 85.3142 42.7234 85.0817 42.7238C84.9077 42.7239 84.7376 42.6726 84.5929 42.5764C84.4482 42.4802 84.3354 42.3434 84.2688 42.1833C84.2022 42.0232 84.1848 41.847 84.2187 41.677C84.2527 41.507 84.3366 41.3509 84.4597 41.2285L85.1454 40.5432L84.2662 39.6674C84.1063 39.5026 84.0177 39.2819 84.0193 39.0526C84.021 38.8234 84.1128 38.6039 84.275 38.4414H84.2794Z" fill="#00150F"/>
<path d="M111.938 48.0155C111.773 47.8517 111.55 47.7598 111.317 47.7598C111.084 47.7598 110.861 47.8517 110.696 48.0155L105.949 52.7446C105.797 52.9111 105.716 53.1294 105.721 53.3541C105.727 53.5789 105.819 53.7929 105.979 53.9518C106.138 54.1108 106.353 54.2025 106.579 54.2081C106.804 54.2136 107.023 54.1325 107.191 53.9815L111.938 49.2525C112.103 49.0883 112.195 48.8659 112.195 48.634C112.195 48.4021 112.103 48.1797 111.938 48.0155Z" fill="#00150F"/>
<path d="M102.911 50.9579C102.993 51.0394 103.09 51.1039 103.197 51.148C103.303 51.1921 103.418 51.2148 103.533 51.2148C103.649 51.2148 103.763 51.1921 103.87 51.148C103.977 51.1039 104.074 51.0394 104.155 50.9579L107.333 47.7921C107.491 47.6264 107.578 47.4059 107.575 47.1775C107.571 46.9491 107.479 46.731 107.317 46.5697C107.154 46.4083 106.935 46.3165 106.706 46.3138C106.477 46.3111 106.255 46.3977 106.089 46.5551L102.911 49.7187C102.829 49.8001 102.765 49.8967 102.72 50.003C102.676 50.1093 102.653 50.2233 102.653 50.3383C102.653 50.4534 102.676 50.5674 102.72 50.6737C102.765 50.78 102.829 50.8766 102.911 50.9579Z" fill="#00150F"/>
<path d="M101.353 45.2241L97.3397 49.224C97.1747 49.3884 97.082 49.6112 97.082 49.8436C97.082 50.076 97.1747 50.2989 97.3397 50.4632C97.5046 50.6276 97.7284 50.7199 97.9617 50.7199C98.195 50.7199 98.4187 50.6276 98.5837 50.4632L102.597 46.4654C102.755 46.2997 102.841 46.0792 102.838 45.8508C102.835 45.6225 102.743 45.4044 102.58 45.243C102.418 45.0817 102.199 44.9898 101.97 44.9871C101.74 44.9844 101.519 45.071 101.353 45.2285V45.2241Z" fill="#00150F"/>
<path d="M114.741 57.3246C114.576 57.1608 114.353 57.0688 114.12 57.0688C113.887 57.0688 113.664 57.1608 113.499 57.3246L109.486 61.3224C109.4 61.4028 109.332 61.4994 109.285 61.6065C109.238 61.7136 109.213 61.8289 109.212 61.9458C109.21 62.0627 109.232 62.1787 109.276 62.287C109.32 62.3954 109.385 62.4938 109.468 62.5765C109.551 62.6592 109.65 62.7246 109.759 62.7687C109.867 62.8129 109.984 62.8349 110.101 62.8335C110.218 62.8321 110.334 62.8073 110.442 62.7606C110.549 62.7139 110.647 62.6462 110.727 62.5616L114.741 58.5638C114.823 58.4824 114.887 58.3859 114.932 58.2795C114.976 58.1732 114.999 58.0593 114.999 57.9442C114.999 57.8291 114.976 57.7151 114.932 57.6088C114.887 57.5025 114.823 57.4059 114.741 57.3246Z" fill="#00150F"/>
<path d="M110.228 57.0073L113.404 53.8415C113.556 53.6749 113.637 53.4566 113.632 53.2319C113.626 53.0071 113.534 52.7931 113.374 52.6342C113.215 52.4752 113 52.3835 112.774 52.378C112.549 52.3724 112.33 52.4535 112.162 52.6045L108.984 55.7681C108.819 55.9324 108.727 56.1553 108.727 56.3877C108.727 56.6201 108.819 56.843 108.984 57.0073C109.149 57.1716 109.373 57.2639 109.606 57.2639C109.84 57.2639 110.063 57.1716 110.228 57.0073Z" fill="#00150F"/>
<path d="M98.199 52.7686C96.4254 52.7686 94.6916 53.2924 93.2169 54.274C91.7422 55.2555 90.5928 56.6506 89.9141 58.2828C89.2353 59.915 89.0577 61.7111 89.4038 63.4438C89.7498 65.1766 90.6039 66.7682 91.858 68.0175C93.1121 69.2667 94.71 70.1175 96.4495 70.4622C98.189 70.8068 99.9921 70.6299 101.631 69.9538C103.269 69.2778 104.67 68.1328 105.655 66.6639C106.641 65.1949 107.167 63.4679 107.167 61.7012C107.163 59.3332 106.217 57.0631 104.536 55.3887C102.855 53.7143 100.576 52.772 98.199 52.7686ZM102.652 61.4954C102.487 61.6591 102.264 61.7511 102.031 61.7511C101.798 61.7511 101.575 61.6591 101.41 61.4954L99.5727 59.6651C99.4271 59.5233 99.2312 59.4446 99.0276 59.4461C98.8739 59.4441 98.7232 59.4882 98.5949 59.5725C98.4667 59.6569 98.3668 59.7777 98.3083 59.9193C98.2498 60.0609 98.2353 60.2167 98.2668 60.3665C98.2982 60.5164 98.3742 60.6534 98.4847 60.7597L99.1551 61.4297C99.5083 61.7817 99.7489 62.23 99.8464 62.7181C99.9439 63.2062 99.8941 63.7122 99.7031 64.172C99.5121 64.6319 99.1886 65.0251 98.7734 65.3019C98.3582 65.5788 97.87 65.7268 97.3704 65.7274C96.8397 65.728 96.3226 65.5609 95.8934 65.2501L95.1812 65.9617C95.0154 66.1247 94.7922 66.2166 94.5592 66.2178C94.3848 66.2184 94.2141 66.1673 94.0689 66.071C93.9238 65.9746 93.8106 65.8375 93.7439 65.6769C93.6772 65.5163 93.66 65.3397 93.6944 65.1693C93.7288 64.999 93.8134 64.8427 93.9372 64.7203L94.6252 64.0372L93.746 63.1615C93.581 62.9972 93.4883 62.7743 93.4883 62.5419C93.4883 62.3095 93.581 62.0866 93.746 61.9223C93.911 61.758 94.1347 61.6657 94.368 61.6657C94.6013 61.6657 94.825 61.758 94.99 61.9223L96.8275 63.7548C96.899 63.8251 96.9838 63.8807 97.077 63.9182C97.1702 63.9558 97.2699 63.9747 97.3704 63.9737C97.5238 63.9751 97.674 63.9307 97.8019 63.8463C97.9298 63.7619 98.0295 63.6414 98.088 63.5002C98.1466 63.359 98.1615 63.2036 98.1308 63.0539C98.1 62.9042 98.025 62.767 97.9155 62.6601L97.2429 61.988C97.008 61.7543 96.8217 61.4769 96.6946 61.1715C96.5675 60.866 96.502 60.5387 96.502 60.208C96.502 59.8774 96.5675 59.55 96.6946 59.2446C96.8217 58.9392 97.008 58.6617 97.2429 58.4281C97.4759 58.1924 97.7549 58.0069 98.0627 57.8829C98.3688 57.7547 98.6977 57.6892 99.0298 57.6903C99.5607 57.6903 100.078 57.8582 100.507 58.1697L101.219 57.4604C101.385 57.3029 101.606 57.2163 101.836 57.219C102.065 57.2218 102.284 57.3136 102.446 57.4749C102.608 57.6363 102.701 57.8544 102.704 58.0827C102.707 58.3111 102.621 58.5317 102.463 58.6974L101.775 59.3826L102.654 60.2584C102.818 60.4228 102.91 60.6454 102.91 60.8773C102.909 61.1092 102.817 61.3315 102.652 61.4954Z" fill="#00150F"/>
</g>
</g>
<defs>
<filter id="filter0_d_2_18676" x="0" y="0" width="152" height="152" filterUnits="userSpaceOnUse" color-interpolation-filters="sRGB">
<feFlood flood-opacity="0" result="BackgroundImageFix"/>
<feColorMatrix in="SourceAlpha" type="matrix" values="0 0 0 0 0 0 0 0 0 0 0 0 0 0 0 0 0 0 127 0" result="hardAlpha"/>
<feOffset dy="12"/>
<feGaussianBlur stdDeviation="12"/>
<feComposite in2="hardAlpha" operator="out"/>
<feColorMatrix type="matrix" values="0 0 0 0 0.0255208 0 0 0 0 0.291667 0 0 0 0 0.211823 0 0 0 0.08 0"/>
<feBlend mode="normal" in2="BackgroundImageFix" result="effect1_dropShadow_2_18676"/>
<feBlend mode="normal" in="SourceGraphic" in2="effect1_dropShadow_2_18676" result="shape"/>
</filter>
<clipPath id="clip0_2_18676">
<rect width="78" height="85" fill="white" transform="translate(37 21.5)"/>
</clipPath>
</defs>
</svg>
