<svg width="56" height="57" viewBox="0 0 56 57" fill="none" xmlns="http://www.w3.org/2000/svg">
<rect x="1" y="1.5" width="54" height="54" rx="27" stroke="white" stroke-opacity="0.16" stroke-width="2"/>
<path d="M30.9739 27.3722C31.2969 27.3722 31.6163 27.4399 31.9115 27.5708C32.2068 27.7016 32.4713 27.8929 32.6882 28.1322C32.9051 28.3715 33.0695 28.6536 33.1708 28.9603C33.2721 29.2669 33.308 29.5914 33.2763 29.9128C33.2046 30.496 32.9194 31.0321 32.4759 31.4175C32.0324 31.803 31.4619 32.0107 30.8743 32.0005H32.3983L36.3484 28.0488C37.269 27.1281 38.5177 26.611 39.8197 26.611C41.1217 26.611 42.3703 27.1281 43.291 28.0488L35.1832 36.1561C34.7021 36.6374 34.0496 36.9078 33.3691 36.908H27.0388C26.6785 36.908 26.333 37.051 26.0782 37.3056L23.5797 39.8044L16.8379 33.0426L21.9541 27.9278C22.1303 27.7516 22.3394 27.6119 22.5696 27.5166C22.7998 27.4213 23.0465 27.3722 23.2956 27.3722H30.9739Z" fill="#00D094"/>
<path d="M24.5253 40.7496L15.7178 31.9421L12.7103 34.9495L21.5179 43.757L24.5253 40.7496Z" fill="#00D094"/>
<path d="M33.1414 19.2972C33.64 16.4586 31.743 13.7533 28.9044 13.2547C26.0657 12.7561 23.3604 14.6531 22.8618 17.4917C22.3632 20.3303 24.2602 23.0357 27.0988 23.5342C29.9375 24.0328 32.6428 22.1358 33.1414 19.2972Z" fill="#00D094"/>
<path d="M28.4318 21.0824V21.5615H27.6407V21.0593C26.94 20.9796 26.2812 20.6847 25.7549 20.2153L26.4851 19.3406C26.9613 19.7581 27.5705 19.9928 28.2038 20.0025C28.6903 20.0025 28.9411 19.8044 28.9411 19.5234C28.9411 19.2115 28.6978 19.1432 27.9374 18.9604C26.8198 18.7097 25.9907 18.4055 25.9907 17.3563C25.9907 16.4514 26.6448 15.8201 27.6407 15.7063V15.2272H28.4318V15.7063C29.0469 15.7605 29.6307 16.002 30.1046 16.3981L29.443 17.3257C29.0198 16.9835 28.4966 16.7886 27.9527 16.7705C27.5344 16.7705 27.2986 16.9682 27.2986 17.2268C27.2986 17.5462 27.5497 17.6529 28.3251 17.8201C29.4963 18.0709 30.249 18.4055 30.249 19.3865C30.249 20.36 29.565 20.9913 28.4318 21.0824Z" fill="#010815"/>
<path d="M37.7126 32.7877L37.2029 33.2974C37.1462 33.3522 37.1009 33.4178 37.0697 33.4904C37.0386 33.5629 37.0222 33.641 37.0215 33.7199C37.0208 33.7989 37.0359 33.8772 37.0658 33.9503C37.0957 34.0233 37.1399 34.0897 37.1957 34.1455C37.2516 34.2013 37.318 34.2455 37.3911 34.2754C37.4641 34.3053 37.5425 34.3203 37.6214 34.3196C37.7004 34.3189 37.7784 34.3025 37.8509 34.2713C37.9235 34.2401 37.9891 34.1948 38.0439 34.138L38.5553 33.6283C38.6668 33.5168 38.7295 33.3655 38.7295 33.2078C38.7295 33.0501 38.6668 32.8989 38.5553 32.7873C38.4438 32.6758 38.2925 32.6132 38.1348 32.6132C37.9771 32.6132 37.8258 32.6758 37.7143 32.7873L37.7126 32.7877Z" fill="#010815"/>
<path d="M43.7114 27.6284C42.6784 26.5979 41.2789 26.0192 39.8198 26.0192C38.3607 26.0192 36.9611 26.5979 35.9281 27.6284L33.8816 29.675C33.8789 28.9056 33.5713 28.1687 33.0264 27.6257C32.4814 27.0827 31.7433 26.7779 30.974 26.778H23.2947C22.9674 26.777 22.6432 26.8411 22.3408 26.9664C22.0384 27.0916 21.7639 27.2757 21.5332 27.5078L16.8285 32.2129L16.1377 31.5221C16.0261 31.4106 15.8749 31.348 15.7172 31.348C15.5595 31.348 15.4082 31.4106 15.2967 31.5221L12.2895 34.5295C12.2343 34.5847 12.1904 34.6502 12.1605 34.7223C12.1306 34.7944 12.1152 34.8718 12.1152 34.9498C12.1152 35.0279 12.1306 35.1052 12.1605 35.1773C12.1904 35.2495 12.2343 35.315 12.2895 35.3702L21.0973 44.1778C21.1524 44.233 21.218 44.2769 21.2901 44.3068C21.3622 44.3367 21.4395 44.3521 21.5176 44.3521C21.5957 44.3521 21.673 44.3367 21.7451 44.3068C21.8172 44.2769 21.8827 44.233 21.9379 44.1778L24.9454 41.1707C25.0569 41.0591 25.1195 40.9079 25.1195 40.7502C25.1195 40.5925 25.0569 40.4413 24.9454 40.3297L24.4204 39.8047L26.4986 37.7266C26.5694 37.6554 26.6536 37.599 26.7463 37.5606C26.8391 37.5223 26.9385 37.5027 27.0389 37.503H33.3692C33.7846 37.5041 34.1961 37.4228 34.5798 37.2638C34.9636 37.1048 35.3121 36.8713 35.605 36.5767L36.0753 36.1061C36.1868 35.9945 36.2493 35.8432 36.2492 35.6855C36.2491 35.5277 36.1864 35.3765 36.0748 35.265C35.9632 35.1535 35.8118 35.0909 35.6541 35.091C35.4963 35.0911 35.3451 35.1539 35.2336 35.2655L34.7623 35.7361C34.5798 35.9196 34.3627 36.0652 34.1235 36.1643C33.8844 36.2635 33.628 36.3142 33.3692 36.3137H27.0389C26.7823 36.313 26.528 36.3632 26.291 36.4613C26.0539 36.5595 25.8386 36.7037 25.6576 36.8856L23.5801 38.9634L17.6783 33.045L22.3745 28.3485C22.4953 28.2272 22.6388 28.1312 22.7968 28.0657C22.9549 28.0003 23.1243 27.9668 23.2954 27.9672H30.9747C31.2148 27.9672 31.4523 28.0174 31.6718 28.1148C31.8913 28.2121 32.088 28.3544 32.2492 28.5325C32.4103 28.7105 32.5324 28.9203 32.6075 29.1484C32.6826 29.3765 32.7091 29.6178 32.6852 29.8568C32.6265 30.2922 32.4096 30.6908 32.0757 30.9763C31.7418 31.2619 31.3144 31.4144 30.8751 31.4048H27.1238C26.9661 31.4048 26.8149 31.4675 26.7033 31.579C26.5918 31.6905 26.5292 31.8418 26.5292 31.9995C26.5292 32.1572 26.5918 32.3084 26.7033 32.4199C26.8149 32.5314 26.9661 32.5941 27.1238 32.5941H32.3981C32.5558 32.594 32.7071 32.5313 32.8187 32.4198L36.7691 28.4694C37.5061 27.7343 38.4836 27.2899 39.522 27.218C40.5604 27.146 41.5899 27.4512 42.4212 28.0776L39.814 30.6852C39.7553 30.7395 39.7081 30.8052 39.6754 30.8782C39.6426 30.9513 39.625 31.0302 39.6234 31.1102C39.6219 31.1902 39.6366 31.2697 39.6665 31.3439C39.6964 31.4182 39.7411 31.4856 39.7977 31.5421C39.8543 31.5987 39.9217 31.6433 39.996 31.6732C40.0702 31.703 40.1498 31.7176 40.2298 31.716C40.3098 31.7144 40.3887 31.6967 40.4617 31.6639C40.5347 31.6311 40.6003 31.5839 40.6546 31.5251L43.7128 28.467C43.8235 28.3555 43.8855 28.2046 43.8852 28.0475C43.885 27.8903 43.8225 27.7396 43.7114 27.6284ZM21.5176 42.9165L13.5508 34.9498L15.7173 32.7823L23.6851 40.75L21.5176 42.9165Z" fill="#010815"/>
<path d="M28.0013 24.2076C29.151 24.2077 30.275 23.8668 31.231 23.2281C32.187 22.5894 32.9321 21.6815 33.3722 20.6193C33.8122 19.5571 33.9274 18.3883 33.7031 17.2606C33.4789 16.133 32.9252 15.0972 32.1123 14.2842C31.2993 13.4711 30.2635 12.9175 29.1358 12.6931C28.0082 12.4688 26.8393 12.5839 25.7771 13.0239C24.7149 13.4639 23.807 14.2089 23.1682 15.1649C22.5294 16.1209 22.1885 17.2448 22.1885 18.3945C22.1902 19.9356 22.8031 21.4132 23.8929 22.503C24.9826 23.5928 26.4601 24.2058 28.0013 24.2076ZM28.0013 13.771C28.9158 13.771 29.8099 14.0421 30.5703 14.5501C31.3308 15.0582 31.9235 15.7803 32.2735 16.6252C32.6235 17.4701 32.7151 18.3999 32.5367 19.2968C32.3583 20.1938 31.9179 21.0177 31.2712 21.6644C30.6245 22.3111 29.8006 22.7514 28.9036 22.9298C28.0066 23.1082 27.0769 23.0166 26.232 22.6666C25.3871 22.3166 24.6649 21.7239 24.1569 20.9635C23.6488 20.2031 23.3777 19.309 23.3777 18.3945C23.3791 17.1687 23.8667 15.9935 24.7334 15.1267C25.6002 14.2599 26.7755 13.7724 28.0013 13.771Z" fill="#010815"/>
</svg>
