<svg width="56" height="57" viewBox="0 0 56 57" fill="none" xmlns="http://www.w3.org/2000/svg">
<rect x="1" y="1.5" width="54" height="54" rx="27" stroke="white" stroke-opacity="0.16" stroke-width="2"/>
<path d="M43.3999 23.0194V28.9456C43.3995 29.187 43.3034 29.4185 43.1327 29.5891C42.9619 29.7598 42.7305 29.8558 42.489 29.8561H38.5587C37.5621 29.8558 36.6064 29.4597 35.9018 28.7548C35.1973 28.05 34.8016 27.0941 34.8018 26.0975V25.8668C34.8018 24.8703 35.1975 23.9146 35.9021 23.2099C36.6066 22.5052 37.5622 22.1092 38.5587 22.1089H42.488C42.7296 22.1088 42.9614 22.2047 43.1324 22.3754C43.3034 22.5461 43.3996 22.7778 43.3999 23.0194Z" fill="#00D094"/>
<path d="M40.133 25.982C40.133 26.2478 40.0542 26.5076 39.9065 26.7286C39.7588 26.9496 39.549 27.1218 39.3034 27.2235C39.0579 27.3252 38.7877 27.3519 38.527 27.3C38.2663 27.2482 38.0269 27.1202 37.8389 26.9322C37.651 26.7443 37.523 26.5049 37.4711 26.2442C37.4193 25.9835 37.4459 25.7133 37.5476 25.4677C37.6493 25.2222 37.8216 25.0123 38.0426 24.8647C38.2635 24.717 38.5234 24.6382 38.7891 24.6382C39.1456 24.6382 39.4874 24.7798 39.7394 25.0318C39.9914 25.2838 40.133 25.6256 40.133 25.982Z" fill="#00D094"/>
<path d="M34.8022 25.868V26.1004C34.8025 27.0966 35.1986 28.0518 35.9032 28.7559C36.6078 29.4601 37.5632 29.8555 38.5594 29.8553H42.039V33.1538C42.0382 34.3114 41.5777 35.4212 40.7588 36.2393C39.9398 37.0574 38.8294 37.5166 37.6719 37.5161H26.1495C26.1636 37.4648 26.1826 37.415 26.2061 37.3673C26.2808 37.2076 26.348 37.0478 26.4083 36.8846C26.4757 36.6901 26.598 36.5192 26.7604 36.3927C26.9229 36.2662 27.1185 36.1895 27.3237 36.1719C27.5898 36.1513 27.8384 36.0312 28.02 35.8356C28.2017 35.6401 28.3031 35.3833 28.3041 35.1164V34.2889C28.3037 34.0215 28.2028 33.7641 28.0214 33.5677C27.8401 33.3713 27.5915 33.2502 27.325 33.2285C27.1203 33.2109 26.9251 33.1346 26.7627 33.0087C26.6003 32.8829 26.4778 32.7128 26.4097 32.5189C26.3494 32.3557 26.2822 32.1926 26.2075 32.0366C26.1188 31.85 26.0854 31.642 26.1112 31.4371C26.1371 31.2322 26.221 31.039 26.3532 30.8803C26.5167 30.6883 26.606 30.4441 26.6048 30.1919C26.6052 29.9104 26.4943 29.6401 26.2962 29.4401L25.7135 28.8573C25.5251 28.6677 25.2718 28.5564 25.0047 28.5459C24.7376 28.5353 24.4764 28.6262 24.2736 28.8004C24.0814 28.9629 23.8373 29.0511 23.5856 29.049C23.4238 29.0496 23.2639 29.0145 23.1173 28.9461C22.9613 28.8714 22.7982 28.8042 22.635 28.7439C22.441 28.6755 22.2708 28.5529 22.1444 28.3907C22.018 28.2284 21.9408 28.0333 21.9219 27.8286C21.903 27.5622 21.7823 27.3133 21.5849 27.1333C21.3896 26.951 21.1323 26.8496 20.865 26.8498H20.0392C19.7721 26.8497 19.5148 26.9505 19.3189 27.132C19.1229 27.3135 19.0027 27.5622 18.9823 27.8286C18.9641 28.0336 18.8872 28.2289 18.7607 28.3913C18.6342 28.5536 18.4636 28.6761 18.2692 28.7439C18.1061 28.8042 17.9463 28.8714 17.7869 28.9461C17.601 29.0349 17.3935 29.0684 17.1891 29.0425C16.9847 29.0167 16.792 28.9327 16.634 28.8004C16.4411 28.6358 16.1958 28.5454 15.9422 28.5454C15.7392 28.5458 15.5408 28.6053 15.3711 28.7168V18.8129C15.3708 17.6554 15.8303 16.5452 16.6485 15.7263C17.4667 14.9075 18.5766 14.4472 19.7341 14.4465H37.6719C38.2453 14.4464 38.8131 14.5593 39.3429 14.7787C39.8727 14.9981 40.3541 15.3197 40.7596 15.7252C41.1651 16.1307 41.4867 16.6121 41.7061 17.1419C41.9255 17.6717 42.0384 18.2395 42.0383 18.8129V22.1084H38.5594C37.5626 22.1088 36.6068 22.505 35.9022 23.2101C35.1976 23.9152 34.8019 24.8712 34.8022 25.868Z" fill="#00D094"/>
<path d="M28.3039 34.2887V35.1163C28.3033 35.3833 28.2023 35.6403 28.0209 35.8362C27.8395 36.0321 27.591 36.1525 27.3248 36.1735C27.1197 36.1911 26.924 36.2678 26.7616 36.3943C26.5991 36.5208 26.4768 36.6917 26.4095 36.8862C26.3492 37.0494 26.282 37.2092 26.2072 37.3689C26.1837 37.4166 26.1648 37.4664 26.1507 37.5177C26.1195 37.6212 26.1039 37.7288 26.1044 37.8368C26.1026 38.0878 26.1908 38.331 26.3529 38.5225C26.5256 38.7259 26.6156 38.9868 26.605 39.2535C26.5945 39.5201 26.4842 39.7731 26.296 39.9623L25.7132 40.5478C25.5132 40.7459 25.2429 40.8568 24.9614 40.8563C24.7092 40.8565 24.4652 40.766 24.2741 40.6013C24.1158 40.4683 23.9225 40.3839 23.7174 40.3581C23.5123 40.3324 23.3041 40.3663 23.1178 40.4559C22.9618 40.5269 22.7986 40.5931 22.6354 40.6544C22.4411 40.7232 22.2705 40.8463 22.1441 41.0092C22.0177 41.172 21.9407 41.3678 21.9224 41.5732C21.9027 41.84 21.7829 42.0896 21.5868 42.2718C21.3908 42.454 21.1331 42.5553 20.8655 42.5553H20.039C19.7722 42.5558 19.5152 42.4557 19.3191 42.2749C19.1235 42.0922 19.0033 41.843 18.9821 41.5762C18.9644 41.3707 18.8877 41.1746 18.7612 41.0116C18.6347 40.8486 18.4638 40.7256 18.269 40.6575C18.1058 40.5972 17.9461 40.53 17.7867 40.459C17.6391 40.3894 17.4781 40.353 17.315 40.3524C17.0651 40.3523 16.8235 40.4417 16.6338 40.6044C16.4304 40.7771 16.1695 40.8671 15.9029 40.8566C15.6362 40.8462 15.3832 40.7359 15.194 40.5478L14.6088 39.9623C14.4215 39.7726 14.3118 39.5198 14.3013 39.2534C14.2907 38.987 14.3801 38.7263 14.5519 38.5225C14.6848 38.3649 14.7693 38.1722 14.7951 37.9677C14.8209 37.7632 14.7869 37.5556 14.6972 37.3699C14.6263 37.2102 14.5601 37.0504 14.4987 36.8873C14.4307 36.6925 14.3077 36.5216 14.1447 36.3951C13.9817 36.2686 13.7856 36.192 13.58 36.1745C13.3134 36.1541 13.0644 36.0337 12.8828 35.8374C12.7012 35.6412 12.6004 35.3837 12.6006 35.1163V34.2887C12.6004 34.0212 12.701 33.7634 12.8825 33.5669C13.064 33.3703 13.313 33.2495 13.5797 33.2284C13.7848 33.2109 13.9805 33.1347 14.1435 33.0088C14.3064 32.883 14.4296 32.7129 14.4984 32.5188C14.5587 32.3556 14.6259 32.1924 14.6969 32.0365C14.766 31.8888 14.802 31.7278 14.8021 31.5648C14.8031 31.3134 14.7137 31.0701 14.5502 30.8791C14.3775 30.6757 14.2875 30.4148 14.2981 30.1481C14.3086 29.8815 14.4189 29.6285 14.6071 29.4393L15.1923 28.8565C15.2456 28.8025 15.3051 28.7549 15.3695 28.7146C15.5392 28.6032 15.7376 28.5436 15.9406 28.5432C16.1942 28.5432 16.4395 28.6336 16.6324 28.7983C16.7904 28.9305 16.9831 29.0145 17.1875 29.0404C17.3919 29.0662 17.5994 29.0327 17.7853 28.944C17.9447 28.8692 18.1045 28.802 18.2677 28.7417C18.462 28.6739 18.6326 28.5515 18.7591 28.3891C18.8856 28.2268 18.9625 28.0314 18.9807 27.8264C19.0011 27.5601 19.1213 27.3113 19.3173 27.1298C19.5132 26.9483 19.7705 26.8476 20.0376 26.8477H20.8641C21.1314 26.8475 21.3887 26.9488 21.584 27.1312C21.7814 27.3111 21.9021 27.56 21.921 27.8264C21.9399 28.0312 22.0171 28.2263 22.1435 28.3885C22.2699 28.5507 22.4401 28.6733 22.6341 28.7417C22.7973 28.802 22.9604 28.8692 23.1164 28.944C23.263 29.0123 23.4229 29.0475 23.5847 29.0468C23.8364 29.0489 24.0805 28.9608 24.2727 28.7983C24.4755 28.6241 24.7367 28.5331 25.0038 28.5437C25.2709 28.5542 25.5241 28.6655 25.7125 28.8552L26.2953 29.4379C26.4934 29.638 26.6043 29.9082 26.6039 30.1897C26.6051 30.4419 26.5158 30.6862 26.3522 30.8781C26.2201 31.0368 26.1361 31.23 26.1103 31.435C26.0845 31.6399 26.1179 31.8479 26.2065 32.0344C26.2813 32.1904 26.3485 32.3536 26.4088 32.5167C26.4768 32.7106 26.5994 32.8807 26.7618 33.0066C26.9242 33.1325 27.1194 33.2088 27.3241 33.2264C27.5911 33.2479 27.8401 33.3692 28.0217 33.566C28.2032 33.7629 28.304 34.0209 28.3039 34.2887Z" fill="#010815"/>
<path d="M20.9903 38.06V38.6585H20.002V38.0301C19.1264 37.9304 18.3032 37.5619 17.6455 36.9753L18.5581 35.8824C19.1531 36.4041 19.9142 36.6972 20.7055 36.7093C21.3136 36.7093 21.627 36.4621 21.627 36.1107C21.627 35.7209 21.3229 35.6356 20.3726 35.4073C18.976 35.0939 17.9403 34.7138 17.9403 33.4025C17.9403 32.2712 18.7576 31.4828 20.002 31.3408V30.7437H20.9903V31.3422C21.7594 31.4098 22.4893 31.7116 23.0815 32.2068L22.255 33.3658C21.7255 32.938 21.0708 32.6945 20.3904 32.6723C19.8676 32.6723 19.5728 32.9195 19.5728 33.2424C19.5728 33.6414 19.8868 33.7748 20.856 33.9836C22.3191 34.2972 23.2598 34.7151 23.2598 35.941C23.2611 37.1573 22.4062 37.9458 20.9903 38.06Z" fill="#00D094"/>
<path d="M42.6386 21.5237V18.8128C42.6387 18.1605 42.5103 17.5146 42.2607 16.912C42.0111 16.3093 41.6452 15.7618 41.184 15.3006C40.7227 14.8394 40.1751 14.4736 39.5725 14.2241C38.9698 13.9746 38.3239 13.8463 37.6716 13.8464H33.4207C33.2616 13.8464 33.109 13.9096 32.9965 14.0221C32.884 14.1347 32.8208 14.2872 32.8208 14.4464C32.8208 14.6055 32.884 14.7581 32.9965 14.8706C33.109 14.9831 33.2616 15.0463 33.4207 15.0463H37.6716C38.1663 15.0461 38.6562 15.1434 39.1133 15.3326C39.5704 15.5218 39.9857 15.7992 40.3356 16.149C40.6854 16.4988 40.9629 16.9141 41.1522 17.3711C41.3415 17.8282 41.4389 18.3181 41.4388 18.8128V21.5086H38.5591C37.4039 21.5102 36.2965 21.9698 35.4797 22.7868C34.663 23.6037 34.2036 24.7113 34.2023 25.8665V26.0975C34.2039 27.2525 34.6635 28.3597 35.4802 29.1763C36.2969 29.993 37.4042 30.4524 38.5591 30.454H41.4388V33.1522C41.4376 34.1507 41.0402 35.108 40.3339 35.8138C39.6276 36.5196 38.6701 36.9162 37.6716 36.9167H27.0834C27.1575 36.8335 27.2602 36.7813 27.3711 36.7706C27.7876 36.7377 28.1766 36.5493 28.4605 36.2428C28.7445 35.9362 28.9028 35.5341 28.9038 35.1162V34.29C28.901 33.8722 28.7423 33.4704 28.4587 33.1636C28.1751 32.8567 27.7871 32.6668 27.3707 32.6312C27.2804 32.6222 27.1947 32.5872 27.1239 32.5304C27.0531 32.4736 27.0004 32.3975 26.972 32.3113C26.9035 32.1221 26.827 31.9428 26.7512 31.7844C26.7106 31.7023 26.6943 31.6102 26.7043 31.519C26.7143 31.4279 26.7503 31.3416 26.8078 31.2702C27.0784 30.9518 27.2195 30.5433 27.2032 30.1258C27.187 29.7082 27.0145 29.312 26.7201 29.0155L26.1373 28.4328C25.8413 28.1375 25.4451 27.9645 25.0274 27.9482C24.6097 27.9318 24.2011 28.0732 23.8829 28.3443C23.799 28.4131 23.6932 28.4496 23.5847 28.4472C23.5122 28.4479 23.4405 28.4328 23.3745 28.4029C23.2089 28.3241 23.0297 28.2487 22.8401 28.1787C22.7541 28.1501 22.6782 28.0974 22.6213 28.0269C22.5645 27.9565 22.529 27.8711 22.5192 27.7811C22.4892 27.3639 22.3005 26.974 21.992 26.6916C21.6854 26.4068 21.2825 26.2484 20.8641 26.2484H20.0389C19.6212 26.2502 19.2192 26.4087 18.9127 26.6925C18.6062 26.9764 18.4173 27.365 18.3835 27.7814C18.3744 27.8719 18.339 27.9578 18.2818 28.0285C18.2245 28.0992 18.1479 28.1516 18.0612 28.1794C17.8898 28.2428 17.7184 28.3165 17.5343 28.4002C17.4527 28.4401 17.3614 28.4559 17.2711 28.446C17.1808 28.436 17.0952 28.4007 17.0242 28.344C16.7278 28.0984 16.3557 27.9626 15.9708 27.9593V18.8128C15.9714 17.8146 16.368 16.8575 17.0734 16.1514C17.7789 15.4453 18.7357 15.0478 19.7338 15.0463H26.1493C26.3084 15.0463 26.461 14.9831 26.5735 14.8706C26.686 14.7581 26.7492 14.6055 26.7492 14.4464C26.7492 14.2872 26.686 14.1347 26.5735 14.0221C26.461 13.9096 26.3084 13.8464 26.1493 13.8464H19.7338C18.4176 13.8485 17.156 14.3725 16.2256 15.3036C15.2952 16.2346 14.7721 17.4966 14.7709 18.8128V28.4314L14.1823 29.0166C13.8899 29.3136 13.7189 29.7091 13.7029 30.1256C13.6869 30.542 13.8269 30.9495 14.0956 31.2682C14.1663 31.3501 14.2048 31.455 14.2039 31.5633C14.203 31.6408 14.1851 31.7171 14.1515 31.7868C14.0743 31.9558 14.0016 32.1327 13.9358 32.31C13.9069 32.3962 13.8536 32.4722 13.7823 32.5288C13.7111 32.5854 13.625 32.6201 13.5344 32.6288C13.1169 32.6615 12.7271 32.8505 12.4429 33.158C12.1586 33.4655 12.0008 33.8689 12.001 34.2876V35.1162C12.0031 35.5338 12.1617 35.9353 12.4455 36.2416C12.7292 36.5479 13.1175 36.7367 13.5337 36.7706C13.6247 36.7796 13.7111 36.8149 13.7823 36.8722C13.8535 36.9295 13.9065 37.0063 13.9348 37.0932C13.9996 37.2687 14.0719 37.4405 14.1515 37.6198C14.1926 37.7011 14.2091 37.7927 14.1991 37.8832C14.189 37.9738 14.1528 38.0595 14.0949 38.1299C13.8247 38.4486 13.6839 38.857 13.7002 39.2745C13.7165 39.692 13.8888 40.0882 14.183 40.3849L14.7685 40.9701C15.0654 41.2633 15.4612 41.4349 15.8781 41.4514C16.2951 41.4678 16.7031 41.3278 17.0222 41.0589C17.093 40.9981 17.1808 40.9604 17.2737 40.9508C17.3665 40.9413 17.4601 40.9603 17.5419 41.0054C17.7133 41.0815 17.8847 41.1538 18.0616 41.2193C18.1483 41.2478 18.2249 41.3009 18.282 41.3722C18.339 41.4435 18.374 41.5299 18.3828 41.6207C18.416 42.0383 18.6044 42.4283 18.9107 42.714C19.2175 42.9975 19.6202 43.1545 20.0379 43.1535H20.8644C21.2815 43.1519 21.6828 42.994 21.9892 42.711C22.2955 42.428 22.4846 42.0405 22.5192 41.6249C22.5284 41.5333 22.5638 41.4463 22.621 41.3743C22.6783 41.3023 22.755 41.2483 22.8421 41.2186C23.0194 41.1531 23.1963 41.0815 23.369 41.0016C23.451 40.9602 23.5432 40.9434 23.6345 40.9534C23.7258 40.9634 23.8122 40.9997 23.8833 41.0578C24.2021 41.3286 24.6109 41.4696 25.0288 41.4531C25.4467 41.4366 25.8432 41.2637 26.1397 40.9687L26.7201 40.3859C27.0133 40.089 27.1849 39.6931 27.2013 39.2761C27.2177 38.8591 27.0776 38.451 26.8085 38.1319C26.8051 38.1278 26.8037 38.1217 26.8003 38.1175H37.6716C38.9881 38.1165 40.2504 37.5933 41.1816 36.6627C42.1128 35.7321 42.6368 34.4701 42.6386 33.1536V30.4403C43.0106 30.4041 43.3559 30.2311 43.6076 29.9548C43.8593 29.6785 43.9995 29.3187 44.001 28.9449V23.0194C43.9996 22.6456 43.8595 22.2856 43.6077 22.0093C43.356 21.7329 43.0107 21.5599 42.6386 21.5237ZM25.8706 39.5385L25.2939 40.1178C25.2505 40.1615 25.1989 40.1962 25.142 40.2197C25.0851 40.2432 25.024 40.2552 24.9624 40.255C24.8534 40.256 24.7477 40.2178 24.6645 40.1473C24.4191 39.9407 24.1196 39.8087 23.8015 39.7669C23.4834 39.7251 23.16 39.7753 22.8696 39.9115C22.7266 39.9766 22.5771 40.038 22.429 40.0928C22.126 40.2002 21.8606 40.3928 21.6646 40.6476C21.4686 40.9024 21.3505 41.2085 21.3245 41.5289C21.3151 41.6443 21.2627 41.752 21.1777 41.8307C21.0927 41.9094 20.9813 41.9534 20.8655 41.954H20.0389C19.9251 41.9551 19.8151 41.9135 19.7304 41.8374C19.6436 41.7569 19.5898 41.6469 19.5796 41.5289C19.5526 41.2089 19.4343 40.9034 19.2387 40.6487C19.0431 40.394 18.7785 40.2008 18.4764 40.0921C18.3252 40.0363 18.1778 39.9742 18.0393 39.9125C17.8126 39.8057 17.5652 39.7502 17.3146 39.75C16.9224 39.7502 16.5431 39.8901 16.2447 40.1446C16.1559 40.2195 16.0425 40.2586 15.9264 40.2542C15.8104 40.2498 15.7002 40.2023 15.6173 40.1209L15.0321 39.5358C14.9894 39.4926 14.9557 39.4413 14.9329 39.385C14.9102 39.3287 14.8988 39.2684 14.8995 39.2077C14.8982 39.0988 14.9363 38.9931 15.0068 38.9101C15.2151 38.6671 15.3484 38.3689 15.3906 38.0517C15.4329 37.7344 15.3822 37.4117 15.2447 37.1227C15.1792 36.9753 15.1165 36.8275 15.0613 36.677C14.9529 36.3747 14.7599 36.1099 14.5053 35.9141C14.2507 35.7183 13.9453 35.5997 13.6252 35.5725C13.5098 35.5631 13.402 35.5108 13.3233 35.4258C13.2446 35.3408 13.2006 35.2293 13.2001 35.1135V34.2873C13.1999 34.171 13.2435 34.0588 13.3222 33.9731C13.4009 33.8874 13.5089 33.8345 13.6249 33.8248C13.9441 33.7976 14.2489 33.6796 14.5033 33.4848C14.7577 33.29 14.9511 33.0265 15.0606 32.7254C15.1158 32.5756 15.1778 32.4262 15.2406 32.2877C15.3474 32.061 15.4028 31.8135 15.4031 31.563C15.403 31.1697 15.2629 30.7893 15.0078 30.49C14.9334 30.4015 14.8946 30.2886 14.899 30.1731C14.9033 30.0576 14.9506 29.9479 15.0315 29.8654L15.618 29.2826C15.6422 29.258 15.6696 29.2367 15.6993 29.2192C15.7825 29.167 15.8801 29.1426 15.9781 29.1496C16.0761 29.1565 16.1693 29.1945 16.2443 29.2579C16.4901 29.4643 16.7898 29.5959 17.108 29.6373C17.4262 29.6787 17.7497 29.628 18.04 29.4914C18.1847 29.4228 18.3293 29.3625 18.4754 29.3083C18.7774 29.2005 19.0421 29.0082 19.238 28.7543C19.4339 28.5004 19.5527 28.1955 19.5803 27.876C19.5896 27.7606 19.642 27.6528 19.727 27.5741C19.812 27.4954 19.9234 27.4514 20.0393 27.4509H20.8658C20.9841 27.4513 21.0976 27.4972 21.1829 27.5792C21.2672 27.6575 21.3181 27.7653 21.3252 27.8801C21.3545 28.1982 21.4738 28.5014 21.6691 28.7542C21.8644 29.0069 22.1276 29.1989 22.428 29.3076C22.5819 29.3649 22.7273 29.4255 22.8603 29.489C23.1532 29.6224 23.4776 29.6713 23.7969 29.6301C24.1161 29.5889 24.4175 29.4593 24.6669 29.2558C24.7552 29.181 24.8684 29.1422 24.984 29.1472C25.0995 29.1521 25.209 29.2005 25.2905 29.2826L25.8685 29.8609C25.9121 29.9043 25.9467 29.9559 25.9702 30.0128C25.9938 30.0696 26.0058 30.1305 26.0056 30.1921C26.0065 30.3024 25.9673 30.4094 25.8952 30.4931C25.6897 30.7406 25.559 31.0416 25.5185 31.3608C25.478 31.68 25.5294 32.0042 25.6666 32.2952C25.7293 32.4269 25.7903 32.5722 25.8459 32.7227C25.953 33.0246 26.1448 33.2893 26.3984 33.485C26.652 33.6808 26.9566 33.7994 27.2758 33.8266C27.392 33.8365 27.5004 33.8894 27.5797 33.975C27.6591 34.0606 27.7036 34.1727 27.7046 34.2894V35.1162C27.7051 35.2327 27.6605 35.3449 27.5802 35.4292C27.5021 35.5141 27.3948 35.5662 27.2799 35.5752C26.9602 35.6016 26.6549 35.7197 26.4008 35.9154C26.1466 36.1111 25.9544 36.3761 25.8472 36.6784C25.7931 36.8262 25.7317 36.9705 25.6707 37.1018C25.6441 37.1573 25.6211 37.2146 25.6021 37.2732C25.598 37.2825 25.5949 37.2917 25.5915 37.3013C25.5881 37.3109 25.5805 37.3263 25.5771 37.3383C25.5737 37.3503 25.5723 37.3613 25.5692 37.3726C25.5661 37.3839 25.5631 37.3976 25.5607 37.4107C25.5239 37.5493 25.5049 37.692 25.5041 37.8354C25.5026 38.228 25.6411 38.6083 25.8946 38.9081C25.9701 38.9971 26.0096 39.1112 26.0051 39.2279C26.0007 39.3447 25.9527 39.4555 25.8706 39.5385ZM42.8004 28.9456C42.8004 28.9864 42.7924 29.0268 42.7768 29.0645C42.7612 29.1021 42.7383 29.1364 42.7095 29.1652C42.6806 29.1941 42.6464 29.2169 42.6087 29.2325C42.571 29.2482 42.5306 29.2562 42.4899 29.2562H42.0442H42.0373H42.0308H38.5591C37.7219 29.2552 36.9192 28.9222 36.3272 28.3301C35.7352 27.7381 35.4021 26.9354 35.4011 26.0982V25.8671C35.402 25.0298 35.7349 24.2269 36.327 23.6348C36.919 23.0426 37.7218 22.7095 38.5591 22.7085H42.4888C42.5712 22.7086 42.6502 22.7414 42.7085 22.7997C42.7667 22.858 42.7994 22.937 42.7994 23.0194L42.8004 28.9456Z" fill="#010815"/>
<path d="M38.7895 24.0383C38.405 24.0383 38.0292 24.1523 37.7096 24.3659C37.3899 24.5795 37.1408 24.8831 36.9937 25.2382C36.8465 25.5934 36.8081 25.9842 36.8831 26.3613C36.9581 26.7383 37.1432 27.0847 37.415 27.3565C37.6869 27.6283 38.0332 27.8135 38.4103 27.8885C38.7873 27.9635 39.1781 27.925 39.5333 27.7779C39.8885 27.6307 40.1921 27.3816 40.4056 27.062C40.6192 26.7423 40.7332 26.3665 40.7332 25.9821C40.7326 25.4668 40.5276 24.9727 40.1632 24.6083C39.7988 24.244 39.3048 24.039 38.7895 24.0383ZM38.7895 26.726C38.6423 26.726 38.4985 26.6823 38.3762 26.6006C38.2538 26.5189 38.1585 26.4027 38.1022 26.2668C38.0459 26.1308 38.0311 25.9813 38.0598 25.8369C38.0886 25.6926 38.1594 25.5601 38.2634 25.4561C38.3675 25.352 38.5 25.2812 38.6443 25.2525C38.7886 25.2238 38.9382 25.2385 39.0741 25.2948C39.2101 25.3511 39.3263 25.4465 39.408 25.5688C39.4897 25.6911 39.5334 25.8349 39.5334 25.9821C39.5332 26.1793 39.4548 26.3684 39.3153 26.5079C39.1758 26.6474 38.9867 26.7258 38.7895 26.726Z" fill="#010815"/>
<path d="M29.763 15.0464H30.1617C30.3208 15.0464 30.4734 14.9832 30.5859 14.8707C30.6984 14.7582 30.7616 14.6056 30.7616 14.4465C30.7616 14.2874 30.6984 14.1348 30.5859 14.0223C30.4734 13.9098 30.3208 13.8466 30.1617 13.8466H29.763C29.6039 13.8466 29.4513 13.9098 29.3388 14.0223C29.2263 14.1348 29.1631 14.2874 29.1631 14.4465C29.1631 14.6056 29.2263 14.7582 29.3388 14.8707C29.4513 14.9832 29.6039 15.0464 29.763 15.0464Z" fill="#010815"/>
</svg>
