<svg width="152" height="152" viewBox="0 0 152 152" fill="none" xmlns="http://www.w3.org/2000/svg">
<g filter="url(#filter0_d_2_18674)">
<rect x="24" y="12" width="104" height="104" rx="52" fill="white" shape-rendering="crispEdges"/>
<g clip-path="url(#clip0_2_18674)">
<path d="M58.6857 46.829C58.3424 46.9651 58.001 47.107 57.6615 47.2605L57.6324 47.2741C55.9314 48.0405 54.3291 49.0103 52.8606 50.1625L49.3398 42.7317C55.1592 43.0524 57.7372 45.552 58.6857 46.829Z" fill="#112520"/>
<path d="M76.8445 29.8274C74.9846 29.8274 73.1664 30.3801 71.6199 31.4155C70.0734 32.4509 68.8681 33.9226 68.1563 35.6444C67.4445 37.3663 67.2583 39.261 67.6211 41.0889C67.984 42.9168 68.8796 44.5958 70.1948 45.9136C71.51 47.2315 73.1857 48.129 75.0099 48.4925C76.8341 48.8561 78.7249 48.6695 80.4433 47.9563C82.1617 47.2431 83.6304 46.0353 84.6638 44.4857C85.6971 42.9361 86.2486 41.1142 86.2486 39.2505C86.2461 36.7521 85.2544 34.3568 83.4914 32.5902C81.7283 30.8236 79.3379 29.83 76.8445 29.8274ZM76.154 38.4536H77.539C78.3602 38.4787 79.1401 38.8198 79.7169 39.406C80.2936 39.9923 80.6228 40.7787 80.6361 41.6018C80.6493 42.4249 80.3456 43.2215 79.788 43.8261C79.2304 44.4307 78.4617 44.7968 77.6418 44.8484V46.761C77.6418 46.9724 77.558 47.1751 77.4088 47.3245C77.2597 47.474 77.0574 47.5579 76.8465 47.5579C76.6355 47.5579 76.4333 47.474 76.2841 47.3245C76.135 47.1751 76.0512 46.9724 76.0512 46.761V44.8523H73.7525C73.6449 44.8576 73.5373 44.841 73.4363 44.8034C73.3353 44.7658 73.243 44.708 73.1649 44.6336C73.0869 44.5591 73.0247 44.4696 72.9823 44.3704C72.9398 44.2711 72.9179 44.1643 72.9179 44.0563C72.9179 43.9484 72.9398 43.8415 72.9823 43.7423C73.0247 43.6431 73.0869 43.5535 73.1649 43.4791C73.243 43.4046 73.3353 43.3469 73.4363 43.3093C73.5373 43.2717 73.6449 43.2551 73.7525 43.2604H77.539C77.965 43.2604 78.3735 43.0908 78.6747 42.789C78.9759 42.4872 79.1451 42.0778 79.1451 41.651C79.1451 41.2241 78.9759 40.8148 78.6747 40.513C78.3735 40.2112 77.965 40.0416 77.539 40.0416H76.154C75.317 40.0394 74.5142 39.7082 73.9184 39.1192C73.3226 38.5302 72.9812 37.7304 72.9678 36.8918C72.9543 36.0533 73.2698 35.2429 73.8464 34.6349C74.423 34.027 75.2147 33.6701 76.0512 33.641V31.7303C76.0512 31.5189 76.135 31.3162 76.2841 31.1668C76.4333 31.0173 76.6355 30.9334 76.8465 30.9334C77.0574 30.9334 77.2597 31.0173 77.4088 31.1668C77.558 31.3162 77.6418 31.5189 77.6418 31.7303V33.6371H79.9404C80.1443 33.6472 80.3365 33.7354 80.4773 33.8836C80.618 34.0318 80.6965 34.2285 80.6965 34.433C80.6965 34.6376 80.618 34.8343 80.4773 34.9824C80.3365 35.1306 80.1443 35.2189 79.9404 35.229H76.154C75.728 35.229 75.3195 35.3985 75.0183 35.7004C74.717 36.0022 74.5478 36.4115 74.5478 36.8384C74.5478 37.2652 74.717 37.6746 75.0183 37.9764C75.3195 38.2782 75.728 38.4478 76.154 38.4478V38.4536Z" fill="#112520"/>
<path d="M44.4848 73.6287H41.8952C41.3929 73.6277 40.9114 73.4273 40.5562 73.0714C40.201 72.7155 40.001 72.2331 40 71.7297V66.9735C40.0005 66.47 40.2004 65.9873 40.5557 65.6312C40.911 65.2752 41.3927 65.075 41.8952 65.0745H44.1783C43.7541 67.9198 43.858 70.8192 44.4848 73.6268V73.6287Z" fill="#112520"/>
<path d="M68.6834 91.8259V95.6317C68.6834 95.9925 68.5404 96.3386 68.2857 96.5938C68.0311 96.8489 67.6857 96.9923 67.3256 96.9923H62.4218C62.0617 96.9923 61.7163 96.8489 61.4617 96.5938C61.207 96.3386 61.064 95.9925 61.064 95.6317V91.0095C63.0576 91.5517 65.1143 91.8262 67.1801 91.8259H68.6834Z" fill="#112520"/>
<path d="M91.0648 91.0095V95.6317C91.0648 95.9925 90.9218 96.3386 90.6671 96.5938C90.4125 96.8489 90.0671 96.9923 89.707 96.9923H84.8051C84.445 96.9923 84.0996 96.8489 83.845 96.5938C83.5903 96.3386 83.4473 95.9925 83.4473 95.6317V91.8259H84.9545C87.0184 91.8272 89.0733 91.5526 91.0648 91.0095Z" fill="#112520"/>
<path d="M84.9467 46.8172H84.8226C83.7972 47.9061 82.5606 48.7736 81.1886 49.3665C79.8167 49.9595 78.3383 50.2653 76.8442 50.2653C75.3501 50.2653 73.8718 49.9595 72.4998 49.3665C71.1279 48.7736 69.8913 47.9061 68.8659 46.8172H67.1763C64.1113 46.811 61.0803 47.4611 58.2863 48.724L58.2572 48.7376C53.5647 50.8661 49.7813 54.5983 47.5839 59.2663C45.3864 63.9343 44.9184 69.2335 46.2635 74.2157V74.241C47.2049 77.7218 49 80.9115 51.4853 83.52C53.9706 86.1284 57.0673 88.0729 60.4937 89.1765H60.5209C62.6733 89.8742 64.9219 90.2278 67.1841 90.2241H84.9564C87.2198 90.2273 89.4697 89.8738 91.6235 89.1765C91.6305 89.1776 91.6378 89.1776 91.6448 89.1765H91.6545C96.5594 87.5775 100.734 84.2777 103.428 79.8704C106.122 75.463 107.159 70.2372 106.352 65.1326C105.544 60.0279 102.946 55.3792 99.0245 52.0223C95.1027 48.6653 90.1143 46.8204 84.9564 46.8191L84.9467 46.8172ZM55.9702 65.0744C55.2324 65.0744 54.5112 64.8552 53.8978 64.4445C53.2843 64.0338 52.8062 63.4501 52.5239 62.7671C52.2416 62.0841 52.1677 61.3326 52.3116 60.6075C52.4556 59.8824 52.8108 59.2164 53.3325 58.6937C53.8542 58.171 54.5188 57.815 55.2424 57.6708C55.966 57.5265 56.716 57.6006 57.3977 57.8835C58.0793 58.1664 58.6618 58.6454 59.0717 59.2601C59.4816 59.8748 59.7004 60.5974 59.7004 61.3367C59.6999 62.3279 59.3067 63.2783 58.6073 63.9791C57.9078 64.68 56.9593 65.0739 55.9702 65.0744ZM86.5878 53.2703H67.0987C66.8878 53.2703 66.6855 53.1863 66.5364 53.0369C66.3872 52.8874 66.3034 52.6847 66.3034 52.4734C66.3034 52.262 66.3872 52.0593 66.5364 51.9099C66.6855 51.7604 66.8878 51.6765 67.0987 51.6765H86.5878C86.7987 51.6765 87.001 51.7604 87.1502 51.9099C87.2993 52.0593 87.3831 52.262 87.3831 52.4734C87.3831 52.6847 87.2993 52.8874 87.1502 53.0369C87.001 53.1863 86.7987 53.2703 86.5878 53.2703Z" fill="#112520"/>
<path d="M58.1098 61.3368C58.1098 61.7597 57.9847 62.1731 57.7502 62.5247C57.5157 62.8763 57.1825 63.1503 56.7926 63.3121C56.4027 63.474 55.9737 63.5163 55.5598 63.4338C55.1459 63.3513 54.7657 63.1477 54.4672 62.8487C54.1688 62.5496 53.9656 62.1687 53.8833 61.7539C53.801 61.3392 53.8432 60.9093 54.0047 60.5186C54.1662 60.1279 54.4397 59.794 54.7906 59.5591C55.1415 59.3241 55.554 59.1987 55.9761 59.1987C56.542 59.1987 57.0847 59.424 57.4849 59.825C57.885 60.2259 58.1098 60.7698 58.1098 61.3368Z" fill="#112520"/>
<path d="M115.002 55.706C115.002 54.8748 114.756 54.0624 114.295 53.3713C113.834 52.6802 113.179 52.1416 112.413 51.8236C111.647 51.5055 110.803 51.4223 109.99 51.5844C109.176 51.7466 108.429 52.1468 107.843 52.7345C107.256 53.3222 106.857 54.071 106.695 54.8861C106.533 55.7013 106.616 56.5462 106.933 57.3141C107.251 58.082 107.788 58.7383 108.478 59.2001C109.168 59.6618 109.979 59.9083 110.808 59.9083C111.019 59.9083 111.221 59.8243 111.37 59.6749C111.52 59.5254 111.603 59.3227 111.603 59.1113C111.603 58.9 111.52 58.6973 111.37 58.5478C111.221 58.3984 111.019 58.3144 110.808 58.3144C110.293 58.3144 109.789 58.1613 109.361 57.8744C108.932 57.5874 108.598 57.1796 108.401 56.7025C108.204 56.2254 108.152 55.7005 108.253 55.194C108.354 54.6876 108.602 54.2225 108.967 53.8575C109.331 53.4925 109.796 53.244 110.301 53.1435C110.807 53.043 111.33 53.095 111.806 53.2929C112.282 53.4908 112.689 53.8256 112.975 54.2552C113.261 54.6847 113.414 55.1896 113.413 55.706C113.413 55.81 113.434 55.913 113.473 56.0092C113.434 56.1046 113.413 56.207 113.413 56.3105V64.6859C113.413 65.4922 113.093 66.2653 112.524 66.8356C111.955 67.4059 111.184 67.7268 110.379 67.7278H108.738C108.631 67.7225 108.523 67.7391 108.422 67.7767C108.321 67.8143 108.229 67.8721 108.151 67.9465C108.073 68.0209 108.011 68.1105 107.968 68.2097C107.926 68.309 107.904 68.4158 107.904 68.5238C107.904 68.6317 107.926 68.7386 107.968 68.8378C108.011 68.937 108.073 69.0266 108.151 69.101C108.229 69.1755 108.321 69.2332 108.422 69.2708C108.523 69.3084 108.631 69.325 108.738 69.3197H110.379C111.528 69.3184 112.636 68.8888 113.486 68.1146C114.337 67.3404 114.869 66.2769 114.981 65.131C114.994 65.0724 115.002 65.0124 115.002 64.9522V56.3163C115.002 56.2129 114.982 56.1104 114.942 56.015C114.982 55.9171 115.003 55.812 115.002 55.706Z" fill="#112520"/>
<path d="M76.8441 26.2372C76.9485 26.2372 77.0518 26.2166 77.1482 26.1765C77.2446 26.1365 77.3321 26.0777 77.4058 26.0037C77.4795 25.9297 77.5379 25.8418 77.5777 25.7451C77.6174 25.6485 77.6378 25.5449 77.6375 25.4403V22.7949C77.6274 22.5906 77.5394 22.398 77.3915 22.257C77.2436 22.116 77.0473 22.0374 76.8432 22.0374C76.639 22.0374 76.4427 22.116 76.2949 22.257C76.147 22.398 76.0589 22.5906 76.0488 22.7949V25.4403C76.0486 25.5451 76.069 25.6488 76.1088 25.7456C76.1487 25.8424 76.2073 25.9303 76.2812 26.0044C76.3551 26.0785 76.4429 26.1372 76.5395 26.1771C76.6361 26.2171 76.7396 26.2375 76.8441 26.2372Z" fill="#112520"/>
<path d="M83.3369 27.9809C83.5196 28.0866 83.7366 28.1152 83.9403 28.0605C84.144 28.0059 84.3177 27.8723 84.4232 27.6894L85.7442 25.3997C85.7986 25.309 85.8344 25.2083 85.8495 25.1036C85.8647 24.9989 85.8589 24.8922 85.8324 24.7898C85.806 24.6873 85.7595 24.5912 85.6955 24.507C85.6316 24.4227 85.5516 24.3521 85.4602 24.2992C85.3687 24.2463 85.2677 24.2121 85.1629 24.1988C85.0582 24.1854 84.9518 24.1931 84.8501 24.2213C84.7483 24.2496 84.6532 24.2979 84.5702 24.3633C84.4873 24.4288 84.4182 24.5102 84.367 24.6028L83.046 26.8924C82.9405 27.0754 82.912 27.2929 82.9665 27.497C83.0211 27.7012 83.1543 27.8752 83.3369 27.9809Z" fill="#112520"/>
<path d="M88.7799 33.1434C88.9162 33.1415 89.0497 33.1047 89.1678 33.0365L91.4529 31.7128C91.5432 31.6606 91.6224 31.5911 91.6859 31.5082C91.7494 31.4254 91.7959 31.3308 91.823 31.2299C91.85 31.129 91.8569 31.0238 91.8433 30.9202C91.8298 30.8166 91.796 30.7167 91.7439 30.6263C91.6918 30.5358 91.6224 30.4564 91.5397 30.3928C91.457 30.3292 91.3626 30.2825 91.262 30.2555C91.0586 30.2008 90.8419 30.2293 90.6595 30.3347L88.3725 31.6564C88.221 31.7442 88.1025 31.8796 88.0356 32.0416C87.9686 32.2037 87.9569 32.3833 88.0022 32.5527C88.0475 32.7221 88.1473 32.8718 88.2862 32.9786C88.425 33.0854 88.5951 33.1433 88.7702 33.1434H88.7799Z" fill="#112520"/>
<path d="M62.2241 31.7127L64.5111 33.0364C64.6018 33.0935 64.7029 33.1317 64.8086 33.1487C64.9143 33.1657 65.0224 33.1612 65.1263 33.1353C65.2302 33.1095 65.3278 33.0629 65.4133 32.9983C65.4988 32.9338 65.5704 32.8526 65.6238 32.7597C65.6772 32.6667 65.7114 32.5639 65.7242 32.4574C65.7371 32.3509 65.7283 32.2429 65.6985 32.1399C65.6687 32.0369 65.6184 31.941 65.5507 31.8579C65.483 31.7748 65.3993 31.7062 65.3045 31.6564L63.0156 30.3327C62.8332 30.2313 62.6184 30.2058 62.4174 30.2616C62.2164 30.3174 62.0453 30.4501 61.9411 30.6311C61.8368 30.812 61.8076 31.0268 61.8598 31.2291C61.912 31.4315 62.0415 31.6051 62.2203 31.7127H62.2241Z" fill="#112520"/>
<path d="M69.2636 27.6893C69.3149 27.7819 69.384 27.8632 69.4669 27.9287C69.5498 27.9942 69.645 28.0425 69.7467 28.0707C69.8485 28.099 69.9548 28.1067 70.0596 28.0933C70.1643 28.0799 70.2654 28.0458 70.3568 27.9929C70.4483 27.94 70.5283 27.8693 70.5922 27.7851C70.6561 27.7009 70.7027 27.6048 70.7291 27.5023C70.7555 27.3999 70.7614 27.2932 70.7462 27.1885C70.7311 27.0838 70.6953 26.9831 70.6409 26.8924L69.3199 24.6027C69.2706 24.5067 69.2024 24.4218 69.1193 24.353C69.0363 24.2843 68.9402 24.2331 68.8368 24.2027C68.7334 24.1723 68.625 24.1632 68.518 24.1761C68.4111 24.1889 68.3078 24.2234 68.2146 24.2775C68.1213 24.3315 68.04 24.404 67.9755 24.4904C67.911 24.5769 67.8648 24.6756 67.8395 24.7806C67.8143 24.8855 67.8106 24.9945 67.8286 25.1009C67.8467 25.2073 67.8861 25.309 67.9446 25.3996L69.2636 27.6893Z" fill="#112520"/>
</g>
</g>
<defs>
<filter id="filter0_d_2_18674" x="0" y="0" width="152" height="152" filterUnits="userSpaceOnUse" color-interpolation-filters="sRGB">
<feFlood flood-opacity="0" result="BackgroundImageFix"/>
<feColorMatrix in="SourceAlpha" type="matrix" values="0 0 0 0 0 0 0 0 0 0 0 0 0 0 0 0 0 0 127 0" result="hardAlpha"/>
<feOffset dy="12"/>
<feGaussianBlur stdDeviation="12"/>
<feComposite in2="hardAlpha" operator="out"/>
<feColorMatrix type="matrix" values="0 0 0 0 0.0255208 0 0 0 0 0.291667 0 0 0 0 0.211823 0 0 0 0.08 0"/>
<feBlend mode="normal" in2="BackgroundImageFix" result="effect1_dropShadow_2_18674"/>
<feBlend mode="normal" in="SourceGraphic" in2="effect1_dropShadow_2_18674" result="shape"/>
</filter>
<clipPath id="clip0_2_18674">
<rect width="75" height="75" fill="white" transform="translate(40 22)"/>
</clipPath>
</defs>
</svg>
