<svg width="152" height="152" viewBox="0 0 152 152" fill="none" xmlns="http://www.w3.org/2000/svg">
<g filter="url(#filter0_d_2_18675)">
<rect x="24" y="12" width="104" height="104" rx="52" fill="white" shape-rendering="crispEdges"/>
<g clip-path="url(#clip0_2_18675)">
<path d="M45.4589 61.0266H36.8174V92.8595H45.4589V61.0266Z" fill="#122622"/>
<path d="M62.8905 69.771H54.249V92.8572H62.8905V69.771Z" fill="#122622"/>
<path d="M80.3217 51.9258H71.6802V92.8573H80.3217V51.9258Z" fill="#122622"/>
<path d="M97.7533 57.4768H89.1118V92.8572H97.7533V57.4768Z" fill="#122622"/>
<path d="M115.185 45.0706H106.543V92.8573H115.185V45.0706Z" fill="#122622"/>
<path d="M116.085 95.6989H35.9086C35.7857 95.6928 35.6628 95.7116 35.5474 95.7542C35.432 95.7967 35.3265 95.8621 35.2373 95.9463C35.1481 96.0305 35.0771 96.1319 35.0286 96.2441C34.9801 96.3564 34.9551 96.4773 34.9551 96.5995C34.9551 96.7216 34.9801 96.8425 35.0286 96.9548C35.0771 97.0671 35.1481 97.1684 35.2373 97.2526C35.3265 97.3369 35.432 97.4022 35.5474 97.4447C35.6628 97.4873 35.7857 97.5061 35.9086 97.5001H116.085C116.208 97.5061 116.33 97.4873 116.446 97.4447C116.561 97.4022 116.667 97.3369 116.756 97.2526C116.845 97.1684 116.916 97.0671 116.965 96.9548C117.013 96.8425 117.038 96.7216 117.038 96.5995C117.038 96.4773 117.013 96.3564 116.965 96.2441C116.916 96.1319 116.845 96.0305 116.756 95.9463C116.667 95.8621 116.561 95.7967 116.446 95.7542C116.33 95.7116 116.208 95.6928 116.085 95.6989Z" fill="#122622"/>
<path d="M41.0484 54.1712C41.8857 54.1716 42.7044 53.9256 43.4008 53.4643C44.0973 53.003 44.6402 52.3471 44.9609 51.5795C45.2817 50.812 45.3658 49.9673 45.2027 49.1523C45.0396 48.3373 44.6366 47.5886 44.0447 47.0009C43.4528 46.4132 42.6985 46.0129 41.8773 45.8507C41.056 45.6884 40.2048 45.7714 39.4311 46.0893C38.6575 46.4072 37.9962 46.9456 37.531 47.6365C37.0657 48.3273 36.8174 49.1396 36.8174 49.9705C36.8191 51.0837 37.2654 52.1508 38.0584 52.9381C38.8514 53.7255 39.9266 54.1688 41.0484 54.1712Z" fill="#122622"/>
<path d="M58.5709 63.1314C59.4081 63.1309 60.2264 62.8841 60.9223 62.4222C61.6182 61.9602 62.1605 61.3039 62.4805 60.5362C62.8005 59.7684 62.8839 58.9238 62.7201 58.109C62.5563 57.2942 62.1527 56.5459 61.5604 55.9588C60.9681 55.3716 60.2136 54.9719 59.3923 54.8103C58.5711 54.6486 57.72 54.7322 56.9466 55.0506C56.1733 55.3689 55.5124 55.9077 55.0476 56.5987C54.5829 57.2898 54.335 58.102 54.3354 58.9329C54.3372 60.0466 54.7841 61.1142 55.5782 61.9013C56.3722 62.6884 57.4485 63.1308 58.5709 63.1314Z" fill="#122622"/>
<path d="M75.9998 45.6621C76.8371 45.6621 77.6555 45.4158 78.3517 44.9542C79.0478 44.4926 79.5904 43.8365 79.9108 43.069C80.2312 42.3014 80.315 41.4568 80.1517 40.6419C79.9883 39.8271 79.5852 39.0786 78.9931 38.4911C78.4011 37.9036 77.6468 37.5035 76.8257 37.3415C76.0045 37.1794 75.1533 37.2626 74.3798 37.5805C73.6063 37.8984 72.9452 38.4369 72.48 39.1277C72.0149 39.8185 71.7666 40.6306 71.7666 41.4614C71.7684 42.575 72.2149 43.6424 73.0084 44.4299C73.8019 45.2173 74.8776 45.6604 75.9998 45.6621Z" fill="#122622"/>
<path d="M93.4314 51.2176C94.2687 51.2176 95.0871 50.9712 95.7833 50.5096C96.4794 50.048 97.022 49.392 97.3424 48.6244C97.6628 47.8568 97.7466 47.0122 97.5833 46.1973C97.42 45.3825 97.0168 44.634 96.4248 44.0465C95.8327 43.459 95.0785 43.059 94.2573 42.8969C93.4361 42.7348 92.585 42.818 91.8115 43.1359C91.038 43.4539 90.3768 43.9923 89.9117 44.6831C89.4465 45.3739 89.1982 46.186 89.1982 47.0169C89.2 48.1304 89.6466 49.1979 90.4401 49.9853C91.2336 50.7727 92.3093 51.2158 93.4314 51.2176Z" fill="#122622"/>
<path d="M110.863 38.9014C111.7 38.9014 112.519 38.655 113.215 38.1934C113.911 37.7319 114.454 37.0758 114.774 36.3082C115.094 35.5407 115.178 34.696 115.015 33.8812C114.852 33.0663 114.448 32.3178 113.856 31.7304C113.264 31.1429 112.51 30.7428 111.689 30.5807C110.868 30.4186 110.017 30.5018 109.243 30.8198C108.47 31.1377 107.808 31.6761 107.343 32.3669C106.878 33.0577 106.63 33.8699 106.63 34.7007C106.631 35.8144 107.077 36.8822 107.871 37.6698C108.665 38.4573 109.741 38.9002 110.863 38.9014Z" fill="#122622"/>
<path d="M46.895 53.9733L51.8153 56.3925C51.9225 56.4488 52.0399 56.4832 52.1607 56.4937C52.2815 56.5042 52.4032 56.4906 52.5186 56.4537C52.634 56.4169 52.7408 56.3575 52.8327 56.279C52.9246 56.2005 52.9998 56.1046 53.0538 55.9969C53.1077 55.8892 53.1394 55.7718 53.147 55.6517C53.1546 55.5317 53.1379 55.4113 53.0979 55.2977C53.0578 55.1842 52.9953 55.0797 52.914 54.9905C52.8327 54.9012 52.7341 54.8291 52.6243 54.7782L47.704 52.348C47.4892 52.2485 47.2436 52.2363 47.0199 52.314C46.7961 52.3916 46.6117 52.553 46.5062 52.7637C46.4006 52.9743 46.3822 53.2175 46.4548 53.4415C46.5275 53.6654 46.6855 53.8523 46.895 53.9623V53.9733Z" fill="#122622"/>
<path d="M63.6794 54.7166C63.7995 54.7165 63.9183 54.6927 64.029 54.6467C64.1398 54.6006 64.2402 54.5332 64.3244 54.4483L71.5186 47.2257C71.6024 47.1417 71.6688 47.0421 71.7138 46.9326C71.7588 46.8231 71.7817 46.7059 71.7811 46.5877C71.7804 46.4694 71.7564 46.3525 71.7102 46.2435C71.664 46.1344 71.5967 46.0355 71.512 45.9523C71.4273 45.8691 71.3269 45.8033 71.2166 45.7586C71.1062 45.714 70.9881 45.6913 70.869 45.6919C70.7498 45.6925 70.6319 45.7164 70.5221 45.7622C70.4122 45.808 70.3125 45.8749 70.2287 45.9589L63.0323 53.1771C62.9059 53.3039 62.8202 53.4649 62.7858 53.6399C62.7515 53.8149 62.7701 53.9961 62.8392 54.1607C62.9084 54.3253 63.0251 54.4658 63.1746 54.5647C63.3241 54.6637 63.4997 54.7165 63.6794 54.7166Z" fill="#122622"/>
<path d="M82.4763 44.4129L86.2308 45.7654C86.3305 45.8002 86.4354 45.818 86.5411 45.8182C86.7542 45.8172 86.9602 45.7419 87.123 45.6055C87.2858 45.469 87.3951 45.2801 87.4318 45.0718C87.4685 44.8635 87.4303 44.649 87.3238 44.4659C87.2173 44.2827 87.0493 44.1425 86.8492 44.0698L83.0947 42.7194C82.8684 42.638 82.6188 42.6492 82.4008 42.7505C82.1828 42.8517 82.0142 43.0348 81.9322 43.2593C81.8502 43.4839 81.8615 43.7316 81.9635 43.9479C82.0656 44.1643 82.25 44.3315 82.4763 44.4129Z" fill="#122622"/>
<path d="M99.3157 43.8146C99.5058 43.8149 99.6912 43.7556 99.8454 43.6452L105.473 39.6271C105.659 39.4841 105.783 39.2747 105.817 39.0432C105.851 38.8116 105.793 38.576 105.655 38.3862C105.517 38.1963 105.31 38.067 105.078 38.0257C104.846 37.9843 104.607 38.0341 104.411 38.1645L98.797 42.1805C98.6409 42.2918 98.5243 42.4494 98.4641 42.6306C98.4039 42.8118 98.4032 43.0073 98.4621 43.189C98.521 43.3706 98.6364 43.529 98.7918 43.6415C98.9472 43.7539 99.1345 43.8145 99.3267 43.8146H99.3157Z" fill="#122622"/>
</g>
</g>
<defs>
<filter id="filter0_d_2_18675" x="0" y="0" width="152" height="152" filterUnits="userSpaceOnUse" color-interpolation-filters="sRGB">
<feFlood flood-opacity="0" result="BackgroundImageFix"/>
<feColorMatrix in="SourceAlpha" type="matrix" values="0 0 0 0 0 0 0 0 0 0 0 0 0 0 0 0 0 0 127 0" result="hardAlpha"/>
<feOffset dy="12"/>
<feGaussianBlur stdDeviation="12"/>
<feComposite in2="hardAlpha" operator="out"/>
<feColorMatrix type="matrix" values="0 0 0 0 0.0255208 0 0 0 0 0.291667 0 0 0 0 0.211823 0 0 0 0.08 0"/>
<feBlend mode="normal" in2="BackgroundImageFix" result="effect1_dropShadow_2_18675"/>
<feBlend mode="normal" in="SourceGraphic" in2="effect1_dropShadow_2_18675" result="shape"/>
</filter>
<clipPath id="clip0_2_18675">
<rect width="82" height="67" fill="white" transform="translate(35 30.5)"/>
</clipPath>
</defs>
</svg>
