<svg width="32" height="32" viewBox="0 0 32 32" fill="none" xmlns="http://www.w3.org/2000/svg">
<rect x="0.666175" y="0.666663" width="30.6665" height="30.6665" rx="15.3333" stroke="#00D094" stroke-opacity="0.08" stroke-width="1.33333"/>
<path d="M22.6663 11.8668C22.1652 12.0842 21.6352 12.2279 21.0929 12.2935C21.6651 11.9517 22.0938 11.414 22.2996 10.7801C21.762 11.1002 21.1735 11.3257 20.5596 11.4468C20.1493 11.0019 19.6029 10.7057 19.0062 10.6047C18.4094 10.5037 17.796 10.6037 17.2622 10.8889C16.7283 11.1742 16.3043 11.6285 16.0565 12.1807C15.8087 12.7329 15.7512 13.3517 15.893 13.9401C14.8059 13.8851 13.7426 13.6021 12.7721 13.1094C11.8016 12.6166 10.9456 11.9253 10.2597 11.0801C10.0191 11.5002 9.89268 11.976 9.893 12.4601C9.89215 12.9097 10.0025 13.3525 10.2142 13.7492C10.4259 14.1458 10.7323 14.4839 11.1063 14.7335C10.6717 14.7216 10.2463 14.605 9.86634 14.3935V14.4268C9.8696 15.0567 10.0903 15.6662 10.4912 16.1521C10.8921 16.638 11.4485 16.9705 12.0663 17.0934C11.8285 17.1658 11.5816 17.204 11.333 17.2068C11.1609 17.2048 10.9893 17.1892 10.8197 17.1601C10.9956 17.702 11.3361 18.1755 11.7937 18.5149C12.2513 18.8542 12.8034 19.0425 13.373 19.0534C12.4111 19.8103 11.2236 20.2233 9.99967 20.2268C9.77683 20.2275 9.55416 20.2141 9.33301 20.1868C10.5826 20.9936 12.0389 21.4219 13.5263 21.4201C14.5528 21.4307 15.5711 21.2368 16.5217 20.8495C17.4724 20.4622 18.3363 19.8893 19.0631 19.1644C19.7899 18.4395 20.3649 17.577 20.7547 16.6274C21.1444 15.6777 21.341 14.6599 21.3329 13.6335C21.3329 13.5201 21.3329 13.4001 21.3329 13.2801C21.8561 12.89 22.3073 12.4117 22.6663 11.8668Z" fill="white"/>
</svg>
